<svg width="335" height="28" viewBox="0 0 335 28" fill="none" xmlns="http://www.w3.org/2000/svg">
<path d="M315.658 8.99162C316.114 8.53601 316.114 7.79732 315.658 7.34171C315.203 6.8861 314.464 6.8861 314.008 7.34171L309 12.3501L303.992 7.34171C303.536 6.8861 302.797 6.8861 302.342 7.34171C301.886 7.79732 301.886 8.53601 302.342 8.99162L307.35 14L302.342 19.0084C301.886 19.464 301.886 20.2027 302.342 20.6583C302.797 21.1139 303.536 21.1139 303.992 20.6583L309 15.6499L314.008 20.6583C314.464 21.1139 315.203 21.1139 315.658 20.6583C316.114 20.2027 316.114 19.464 315.658 19.0084L310.65 14L315.658 8.99162Z" fill="#7B8696"/>
</svg>
