<svg width="160" height="116" viewBox="0 0 160 116" fill="none" xmlns="http://www.w3.org/2000/svg">
<g filter="url(#filter0_d_7986_7212)">
<path d="M64.2217 37.7769L105.477 50.6403L104.666 61.6495L64.917 80.0754L24.4727 60.4906V54.2327L64.2217 37.7769Z" fill="url(#paint0_linear_7986_7212)"/>
</g>
<path d="M24.5879 89.439V54.8115L56.3422 69.0831C62.3853 71.7991 69.3017 71.7991 75.3447 69.0831L107.099 54.8115V89.439C107.099 92.9356 105.132 96.1347 102.011 97.7125L76.3015 110.712C69.7259 114.037 61.9611 114.037 55.3854 110.712L29.6756 97.7125C26.5552 96.1347 24.5879 92.9356 24.5879 89.439Z" fill="url(#paint1_linear_7986_7212)"/>
<path d="M24.5879 89.439V54.8115L56.3422 69.0831C62.3853 71.7991 69.3017 71.7991 75.3447 69.0831L107.099 54.8115V89.439C107.099 92.9356 105.132 96.1347 102.011 97.7125L76.3015 110.712C69.7259 114.037 61.9611 114.037 55.3854 110.712L29.6756 97.7125C26.5552 96.1347 24.5879 92.9356 24.5879 89.439Z" fill="url(#paint2_linear_7986_7212)" fill-opacity="0.14"/>
<path d="M107.108 59.6894L77.2434 75.6295C69.9918 78.8886 61.6921 78.8886 54.4405 75.6295L24.5762 61.7754V51.0013L58.241 64.8556C63.0754 67.0284 68.6085 67.0284 73.4429 64.8556L103.122 50.5982C104.969 49.7112 107.108 51.0569 107.108 53.1052V59.6894Z" fill="url(#paint3_linear_7986_7212)"/>
<path d="M9.61627 61.6964C7.95021 57.9544 9.63312 53.5703 13.3751 51.9042L76.6694 23.7238C80.4115 22.0577 84.7956 23.7406 86.4616 27.4827L89.2898 33.8347C89.9145 35.238 89.2834 36.882 87.8802 37.5068L16.1165 69.4581C14.7132 70.0828 13.0692 69.4517 12.4444 68.0485L9.61627 61.6964Z" fill="#D9CEFF"/>
<path d="M52.8509 16.5684C56.9437 14.7462 61.7392 16.587 63.5614 20.6798C65.3837 24.7727 63.5429 29.5681 59.45 31.3904L44.9859 37.8302L43.2564 33.9459C40.5671 27.9053 43.2837 20.828 49.3243 18.1386L52.8509 16.5684ZM51.3255 22.3765C48.3439 23.7042 47.0028 27.1979 48.3302 30.1796L49.2259 32.1914L56.3193 29.0332C58.3656 28.1221 59.2856 25.7249 58.3747 23.6786C57.4636 21.6322 55.0661 20.7111 53.0197 21.6223L51.3255 22.3765Z" fill="white"/>
<path d="M23.9206 29.4482C19.8278 31.2704 17.987 36.0659 19.8092 40.1587C21.6315 44.2515 26.4269 46.0923 30.5197 44.2701L44.9839 37.8302L43.2545 33.9459C40.565 27.9054 33.4878 25.1886 27.4472 27.878L23.9206 29.4482ZM29.2587 32.2037C32.2406 30.876 35.7342 32.2171 37.0618 35.199L37.9571 37.2098L30.8637 40.368C28.8174 41.2789 26.4202 40.3589 25.5091 38.3126C24.5981 36.2663 25.5184 33.8692 27.5646 32.9579L29.2587 32.2037Z" fill="white"/>
<rect x="38.1484" y="40.8774" width="15.0652" height="17.1512" transform="rotate(-24 38.1484 40.8774)" fill="white"/>
<path d="M118.703 10.3093C117.419 10.5282 116.178 10.7257 115.337 11.1369C116.602 13.0217 119.244 15.4218 117.63 18.556C116.187 21.3592 113.187 21.1937 110.583 21.2818C112.181 23.4016 114.028 25.5507 112.604 28.3192C111.127 31.1891 107.256 31.7845 104.971 32.1449C104.231 32.2623 103.544 31.7818 103.407 31.069L102.906 28.4473C102.766 27.7185 103.272 27.0164 104.023 26.8882C105.323 26.6666 106.541 26.4744 107.388 26.0606C106.118 24.1891 103.486 21.765 105.092 18.6441C106.533 15.8489 109.53 16.0064 112.139 15.9183C110.539 13.7986 108.694 11.6495 110.118 8.88097C111.595 6.01369 115.469 5.41568 117.748 5.05527C118.488 4.9378 119.176 5.41835 119.31 6.13116L119.811 8.75282C119.956 9.48166 119.456 10.1811 118.703 10.3093Z" fill="#5E69D4"/>
<path d="M154.337 37.2716L158.27 37.9723C159.343 38.1648 160.06 39.1273 159.883 40.1591C159.343 43.3507 158.446 48.7753 154.145 50.8427C149.992 52.837 146.769 50.2537 143.589 48.013C143.457 51.6666 143.693 55.867 139.5 57.8805C134.819 60.1289 131.183 56.4445 128.376 54.6658C127.755 55.8516 127.467 57.5571 127.134 59.3781C126.942 60.433 125.889 61.1376 124.796 60.9412L120.863 60.2405C119.79 60.048 119.073 59.0855 119.249 58.0499C119.79 54.8544 120.687 49.4337 124.988 47.3624C129.137 45.3681 132.364 47.9553 135.544 50.1921C135.676 46.5462 135.428 42.342 139.632 40.3246C144.334 38.0647 147.934 41.7645 150.761 43.5355C151.378 42.3574 151.674 40.6211 152.003 38.8231C152.191 37.7798 153.24 37.0791 154.337 37.2716Z" fill="url(#paint4_linear_7986_7212)"/>
<path d="M149.235 4.38185L144.108 9.50846C143.662 9.95475 142.937 9.95475 142.491 9.50846L140.065 7.07866C139.619 6.63237 139.619 5.90762 140.065 5.46133L145.192 0.334718C145.638 -0.111573 146.363 -0.111573 146.809 0.334718L149.235 2.76071C149.681 3.207 149.681 3.93174 149.235 4.38185Z" fill="#56A6FB"/>
<path d="M89.7726 16.6929H86.3396C85.7064 16.6929 85.1953 16.1817 85.1953 15.5485V8.30107C85.1953 7.66787 85.7064 7.15674 86.3396 7.15674H89.7726C90.4058 7.15674 90.917 7.66787 90.917 8.30107V15.5485C90.917 16.1817 90.4058 16.6929 89.7726 16.6929Z" fill="url(#paint5_linear_7986_7212)"/>
<path d="M116.938 39.3141L114.275 37.631C113.774 37.3145 113.629 36.6749 113.973 36.207C121.219 26.4315 135.19 16.2419 149.971 15.7504C150.578 15.7336 151.082 16.2116 151.082 16.7839V19.8168C151.082 20.3554 150.635 20.7762 150.067 20.7998C137.7 21.2643 125.033 30.094 118.368 39.0582C118.038 39.5059 117.413 39.617 116.938 39.3141Z" fill="#56A6FB"/>
<defs>
<filter id="filter0_d_7986_7212" x="23.5456" y="37.7769" width="82.8581" height="44.1525" filterUnits="userSpaceOnUse" color-interpolation-filters="sRGB">
<feFlood flood-opacity="0" result="BackgroundImageFix"/>
<feColorMatrix in="SourceAlpha" type="matrix" values="0 0 0 0 0 0 0 0 0 0 0 0 0 0 0 0 0 0 127 0" result="hardAlpha"/>
<feOffset dy="0.927092"/>
<feGaussianBlur stdDeviation="0.463546"/>
<feComposite in2="hardAlpha" operator="out"/>
<feColorMatrix type="matrix" values="0 0 0 0 0 0 0 0 0 0 0 0 0 0 0 0 0 0 0.25 0"/>
<feBlend mode="normal" in2="BackgroundImageFix" result="effect1_dropShadow_7986_7212"/>
<feBlend mode="normal" in="SourceGraphic" in2="effect1_dropShadow_7986_7212" result="shape"/>
</filter>
<linearGradient id="paint0_linear_7986_7212" x1="71.5226" y1="36.7339" x2="67.1189" y2="69.5298" gradientUnits="userSpaceOnUse">
<stop stop-color="#564F8C"/>
<stop offset="0.616534" stop-color="#52519F"/>
<stop offset="0.980562" stop-color="#D9CEFF"/>
</linearGradient>
<linearGradient id="paint1_linear_7986_7212" x1="52.2848" y1="68.1385" x2="65.8435" y2="118.317" gradientUnits="userSpaceOnUse">
<stop stop-color="#DFB9FD"/>
<stop offset="1" stop-color="#8583E8"/>
</linearGradient>
<linearGradient id="paint2_linear_7986_7212" x1="102.811" y1="81.3495" x2="29.571" y2="81.3495" gradientUnits="userSpaceOnUse">
<stop stop-color="#70A2FF"/>
<stop offset="1" stop-color="#FF9FD1"/>
</linearGradient>
<linearGradient id="paint3_linear_7986_7212" x1="50.8924" y1="52.8419" x2="50.8924" y2="66.053" gradientUnits="userSpaceOnUse">
<stop stop-color="#C7ACE5"/>
<stop offset="1" stop-color="#D9CEFF"/>
</linearGradient>
<linearGradient id="paint4_linear_7986_7212" x1="139.566" y1="43.5972" x2="139.566" y2="57.1596" gradientUnits="userSpaceOnUse">
<stop offset="0.168269" stop-color="#F4F4F5"/>
<stop offset="1" stop-color="#8583E8"/>
</linearGradient>
<linearGradient id="paint5_linear_7986_7212" x1="88.0561" y1="9.71105" x2="88.0561" y2="15.1603" gradientUnits="userSpaceOnUse">
<stop offset="0.168269" stop-color="#F4F4F5"/>
<stop offset="1" stop-color="#8583E8"/>
</linearGradient>
</defs>
</svg>
