<svg width="16" height="16" viewBox="0 0 16 16" fill="none" xmlns="http://www.w3.org/2000/svg">
<g clip-path="url(#clip0_1_8988)">
<path d="M14.8814 7.2314L14.6994 6.79781C14.4974 6.31661 14.2534 5.8674 13.9798 5.4478C13.107 4.1102 11.8986 3.1022 10.5178 2.5446C9.72258 2.2238 8.87218 2.0498 7.99658 2.0498C7.15938 2.0498 6.34618 2.2118 5.58178 2.5058C4.19138 3.0406 2.96738 4.0254 2.07818 5.345C1.74858 5.8346 1.46338 6.3682 1.23458 6.943L1.07698 7.3386C-0.52462 11.3538 2.11658 14.2174 6.06378 14.2174H9.93898C13.9322 14.2174 16.5726 11.2578 14.8822 7.2318L14.8814 7.2314ZM5.62698 11.0178C5.38098 11.5682 5.07498 11.7786 4.38018 11.7786C4.32058 11.7786 4.26058 11.7754 4.19978 11.769C3.43218 11.6858 2.98458 10.9814 3.08298 10.3346C3.42218 8.1054 5.00498 7.3194 6.62338 7.4086C7.39378 7.4514 7.86538 7.931 7.86378 8.5838C7.86098 9.4978 7.49938 9.6814 6.74898 9.871C6.21458 10.0062 5.92058 10.3606 5.62698 11.0178ZM8.07578 12.5762C7.36098 12.5762 6.78178 12.1282 6.78178 11.575C6.78178 11.0218 8.07578 10.981 8.07578 10.981C8.07578 10.981 9.36978 11.0222 9.36978 11.575C9.36978 12.1278 8.79058 12.5762 8.07578 12.5762ZM11.8106 11.769C11.7498 11.7754 11.6898 11.7786 11.6302 11.7786C10.9354 11.7786 10.6294 11.5682 10.3834 11.0178C10.0898 10.3602 9.79578 10.0058 9.26138 9.871C8.51098 9.6814 8.14898 9.4978 8.14658 8.5838C8.14458 7.9314 8.61618 7.4514 9.38658 7.4086C11.0054 7.319 12.5878 8.1054 12.927 10.3346C13.0254 10.9818 12.5786 11.6862 11.8106 11.769Z" fill="#D0D6DE"/>
<path d="M5.18908 8.64746C4.76548 8.64746 4.42188 8.99106 4.42188 9.41466C4.42188 9.83826 4.76548 10.1819 5.18908 10.1819C5.61268 10.1819 5.95628 9.83826 5.95628 9.41466C5.95628 8.99106 5.61268 8.64746 5.18908 8.64746Z" fill="black"/>
<path d="M10.8141 8.64746C10.3905 8.64746 10.0469 8.99106 10.0469 9.41466C10.0469 9.83826 10.3905 10.1819 10.8141 10.1819C11.2377 10.1819 11.5813 9.83826 11.5813 9.41466C11.5813 8.99106 11.2377 8.64746 10.8141 8.64746Z" fill="black"/>
<path d="M5.58086 2.50583C5.16766 2.06183 4.58046 1.78223 3.92606 1.78223C2.67686 1.78223 1.66406 2.79503 1.66406 4.04423C1.66406 4.52903 1.81766 4.97663 2.07726 5.34503C2.96646 4.02543 4.19046 3.04103 5.58086 2.50583Z" fill="#2E3D51"/>
<path d="M13.9776 5.44783C14.2836 5.06183 14.4676 4.57503 14.4676 4.04423C14.4676 2.79503 13.4548 1.78223 12.2056 1.78223C11.5324 1.78223 10.93 2.07783 10.5156 2.54463C11.8964 3.10223 13.1048 4.11023 13.9776 5.44783Z" fill="#2E3D51"/>
<path d="M8.07525 10.9814C8.07525 10.9814 6.78125 11.0226 6.78125 11.5754C6.78125 12.1282 7.36045 12.5766 8.07525 12.5766C8.79005 12.5766 9.36925 12.1286 9.36925 11.5754C9.36925 11.0222 8.07525 10.9814 8.07525 10.9814Z" fill="#2E3D51"/>
<path d="M7.86459 8.58337C7.86659 7.93097 7.39499 7.45097 6.62419 7.40817C5.00539 7.31857 3.42299 8.10497 3.08379 10.3342C2.98539 10.9814 3.43259 11.6858 4.20059 11.7686C4.26139 11.775 4.32139 11.7782 4.38099 11.7782C5.07579 11.7782 5.38179 11.5678 5.62779 11.0174C5.92139 10.3598 6.21539 10.0054 6.74979 9.87057C7.50019 9.68097 7.86219 9.49737 7.86459 8.58337ZM5.19259 10.1814C4.76899 10.1814 4.42539 9.83777 4.42539 9.41417C4.42539 8.99057 4.76899 8.64697 5.19259 8.64697C5.61619 8.64697 5.95979 8.99057 5.95979 9.41417C5.95979 9.83777 5.61619 10.1814 5.19259 10.1814Z" fill="#495B73"/>
<path d="M9.38844 7.40811C8.61804 7.45091 8.14644 7.93051 8.14844 8.58331C8.15124 9.49731 8.51284 9.68091 9.26324 9.87051C9.79764 10.0057 10.0916 10.3601 10.3852 11.0173C10.6312 11.5677 10.9372 11.7781 11.632 11.7781C11.6916 11.7781 11.7516 11.7749 11.8124 11.7685C12.58 11.6853 13.0276 10.9809 12.9292 10.3341C12.59 8.10491 11.0068 7.31891 9.38844 7.40811ZM10.82 10.1813C10.3964 10.1813 10.0528 9.83771 10.0528 9.41411C10.0528 8.99051 10.3964 8.64691 10.82 8.64691C11.2436 8.64691 11.5872 8.99051 11.5872 9.41411C11.5872 9.83771 11.2436 10.1813 10.82 10.1813Z" fill="#495B73"/>
</g>
<defs>
<clipPath id="clip0_1_8988">
<rect width="16" height="16" fill="white"/>
</clipPath>
</defs>
</svg>
