<svg width="16" height="16" viewBox="0 0 16 16" fill="none" xmlns="http://www.w3.org/2000/svg">
<g clip-path="url(#clip0_1_9057)">
<path d="M12.2071 8.48995L14.0215 7.39555C14.3223 7.21435 14.1935 6.75195 13.8423 6.75195H11.7539C12.0107 7.25675 12.1703 7.83915 12.2059 8.48875L12.2075 8.48955L12.2071 8.48995Z" fill="#FFB142"/>
<path d="M14.023 9.58446L12.2086 8.49006L12.207 8.48926C12.2098 8.54166 12.2158 8.59246 12.217 8.64566V8.71686C12.2138 9.24046 12.1366 9.74486 12.0078 10.2281H13.8438C14.195 10.2281 14.3234 9.76606 14.023 9.58446Z" fill="#FFB142"/>
<path d="M12.215 8.64548C12.2138 8.59228 12.2078 8.54148 12.205 8.48908C12.1694 7.83908 12.0102 7.25708 11.753 6.75228C11.3458 5.95188 10.7006 5.34468 9.94583 4.95508C9.73503 5.01548 9.51063 5.05108 9.27703 5.05908C9.27703 5.06028 9.27703 5.06148 9.27703 5.06268H5.68623C5.04383 5.45628 4.48223 6.04348 4.08543 6.84908L2.07863 10.9235C1.23023 12.6459 2.48383 14.6607 4.40383 14.6607H6.23663C7.35783 14.6607 8.40343 14.3463 9.30023 13.8091C10.5942 13.0339 11.569 11.7863 11.9862 10.3003C11.993 10.2763 11.9986 10.2523 12.005 10.2283C12.1342 9.74508 12.211 9.24028 12.2142 8.71708V8.64588L12.215 8.64548ZM9.31343 7.34108C9.31343 6.95188 9.62863 6.63668 10.0178 6.63668C10.407 6.63668 10.7222 6.95188 10.7222 7.34108C10.7222 7.73028 10.407 8.04548 10.0178 8.04548C9.62863 8.04548 9.31343 7.73028 9.31343 7.34108Z" fill="#E7E7E7"/>
<path d="M9.30078 13.8076L9.30278 13.8096C10.1448 14.6748 11.5292 14.6936 12.3944 13.8512C13.2596 13.0088 13.278 11.6248 12.436 10.7596L11.9872 10.2988C11.57 11.7848 10.5952 13.0324 9.30118 13.8076H9.30078Z" fill="#E80000"/>
<path d="M9.2799 5.05792C9.5135 5.05032 9.7379 5.01472 9.9487 4.95392C10.8411 4.69792 11.4819 4.00632 11.4819 3.19072C11.4819 2.25312 10.6363 1.47672 9.5327 1.34112C9.3491 1.31872 9.1875 1.46632 9.1875 1.65112V4.34432C9.2455 4.57352 9.2795 4.81152 9.2799 5.05792Z" fill="#E80000"/>
<path d="M6.11489 3.52916C5.89769 3.41876 5.65689 3.35156 5.39889 3.35156C4.61649 3.35156 3.96169 3.92116 3.79649 4.68396C3.75449 4.87756 3.89569 5.06276 4.09409 5.06276H6.11529V3.52956L6.11489 3.52916Z" fill="#E80000"/>
<path d="M6.11719 5.06194H9.28039C9.28039 5.06194 9.28039 5.05954 9.28039 5.05834C9.28039 4.81234 9.24639 4.57394 9.18839 4.34474C8.87879 3.11874 7.79759 2.18234 6.46479 2.04274C6.27999 2.02354 6.11759 2.16754 6.11759 2.35314V5.06194H6.11719Z" fill="#E80000"/>
<path d="M10.0169 8.04552C10.4061 8.04552 10.7213 7.73032 10.7213 7.34112C10.7213 6.95192 10.4061 6.63672 10.0169 6.63672C9.6277 6.63672 9.3125 6.95192 9.3125 7.34112C9.3125 7.73032 9.6277 8.04552 10.0169 8.04552Z" fill="black"/>
</g>
<defs>
<clipPath id="clip0_1_9057">
<rect width="16" height="16" fill="white"/>
</clipPath>
</defs>
</svg>
