<svg width="32" height="32" viewBox="0 0 32 32" fill="none" xmlns="http://www.w3.org/2000/svg">
<g clip-path="url(#clip0_7463_26017)">
<path d="M7.01109 17.9616C6.88229 15.652 6.67429 6.19677 11.7423 3.97597C11.7423 3.97597 13.3327 1.67117 16.8815 2.03997C20.4303 2.40877 23.1407 5.14237 24.0487 7.61677C24.7247 9.45997 25.3943 13.3632 25.2879 17.8856C25.2759 18.4128 24.9911 18.8944 24.5399 19.1672C23.5583 19.7616 21.2879 20.5224 16.0975 20.5224C10.7303 20.5224 8.53349 19.7096 7.64229 19.1072C7.26069 18.8488 7.03669 18.4208 7.01029 17.9608L7.01109 17.9616Z" fill="#333333"/>
<path d="M17.7676 20.9811V20.8579H17.7692V19.5675C20.2012 18.9195 22.1212 16.9515 22.7692 14.4555C23.1692 12.1675 21.7692 10.2075 18.7852 9.76752C15.6572 9.30352 13.6172 7.25552 12.9692 6.50352C12.8812 6.39952 12.7132 6.44752 12.6892 6.58352C12.5372 7.39952 11.9932 9.48752 10.2812 10.9995C10.2812 10.9995 9.99322 11.2235 9.66522 11.6475C9.19322 12.2795 9.00922 13.0795 9.14522 13.8555C9.62522 16.6315 11.6412 18.8635 14.2572 19.5675V20.9899L16.0012 21.7651L17.7676 20.9795V20.9811Z" fill="#FFCCA8"/>
<path d="M13.9143 13.3106C14.3438 13.3106 14.6919 12.8926 14.6919 12.377C14.6919 11.8613 14.3438 11.4434 13.9143 11.4434C13.4849 11.4434 13.1367 11.8613 13.1367 12.377C13.1367 12.8926 13.4849 13.3106 13.9143 13.3106Z" fill="black"/>
<path d="M18.0198 13.3106C18.4492 13.3106 18.7974 12.8926 18.7974 12.377C18.7974 11.8613 18.4492 11.4434 18.0198 11.4434C17.5903 11.4434 17.2422 11.8613 17.2422 12.377C17.2422 12.8926 17.5903 13.3106 18.0198 13.3106Z" fill="black"/>
<path d="M16.9361 16.4766C17.1105 16.4766 17.2345 16.6438 17.1881 16.8126C17.0409 17.3486 16.5505 17.7422 15.9681 17.7422C15.3857 17.7422 14.8945 17.3486 14.7481 16.8126C14.7017 16.6446 14.8257 16.4766 15.0001 16.4766H16.9369H16.9361Z" fill="#5C2F17"/>
<path d="M14.2515 20.8545C14.1859 20.8681 14.1203 20.8873 14.0547 20.9025L14.2515 20.9897V20.8545Z" fill="#E3E3E3"/>
<path d="M17.8843 30.0011L19.9059 21.5515L19.0563 21.2291C18.9795 21.2003 18.9011 21.1787 18.8243 21.1523L18.5699 23.3227C18.5395 23.5787 18.2811 23.7171 18.0811 23.5827L16.0019 22.4067L13.9227 23.5827C13.7227 23.7163 13.4635 23.5787 13.4339 23.3227L13.1795 21.1531C13.1027 21.1795 13.0243 21.2003 12.9475 21.2299L12.0987 21.5523L14.1203 30.0019H4.99634C4.79154 30.0019 4.62834 29.8579 4.58594 29.6747C4.62754 29.8587 4.79154 30.0019 4.99634 30.0019H27.0051H17.8835L17.8843 30.0011ZM16.0107 27.2883C15.7347 27.2883 15.5107 27.0643 15.5107 26.7883C15.5107 26.5123 15.7347 26.2883 16.0107 26.2883C16.2867 26.2883 16.5107 26.5123 16.5107 26.7883C16.5107 27.0643 16.2867 27.2883 16.0107 27.2883ZM16.0107 25.0315C15.7347 25.0315 15.5107 24.8075 15.5107 24.5315C15.5107 24.2555 15.7347 24.0315 16.0107 24.0315C16.2867 24.0315 16.5107 24.2555 16.5107 24.5315C16.5107 24.8075 16.2867 25.0315 16.0107 25.0315Z" fill="#E3E3E3"/>
<path d="M17.7676 20.9808L17.946 20.9016C17.8868 20.888 17.8284 20.8704 17.7692 20.8584C17.7692 20.8584 17.7684 20.8584 17.7676 20.8584V20.9808Z" fill="#E3E3E3"/>
<path d="M13.9212 23.5827L16.0004 22.4067L18.0796 23.5827C18.2796 23.7163 18.5388 23.5787 18.5684 23.3227L18.8228 21.1523L18.8308 21.0819C18.8612 20.8211 18.6364 20.6147 18.41 20.6955L17.9436 20.9027L17.7652 20.9819L15.9988 21.7675L14.2548 20.9923L14.2508 20.9907L14.054 20.9035L13.5876 20.6963C13.3612 20.6155 13.1364 20.8227 13.1668 21.0827L13.1748 21.1531L13.4292 23.3227C13.4596 23.5787 13.718 23.7171 13.918 23.5827H13.9212Z" fill="#333333"/>
<path d="M4.99649 30.0004H14.1181L12.0965 21.5508L9.57489 22.5092C7.95249 23.126 6.60849 24.2836 5.75729 25.766C5.40849 26.374 5.18689 27.0476 5.01969 27.7292L4.58849 29.4804C4.57249 29.5468 4.57249 29.6124 4.58609 29.6732C4.62769 29.8564 4.79169 30.0004 4.99649 30.0004Z" fill="#333333"/>
<path d="M27.4124 29.4804L26.9812 27.7292C26.8852 27.3396 26.7684 26.954 26.6228 26.5796C26.5148 26.3004 26.3924 26.0268 26.2428 25.766C25.3916 24.2828 24.0484 23.1252 22.426 22.5092L19.9044 21.5508L17.8828 30.0004H27.0044C27.1404 30.0004 27.2588 29.9364 27.3348 29.8396C27.4108 29.7428 27.4444 29.6124 27.4124 29.4804Z" fill="#333333"/>
<path d="M16.0098 24.0322C15.7338 24.0322 15.5098 24.2562 15.5098 24.5322C15.5098 24.8082 15.7338 25.0322 16.0098 25.0322C16.2858 25.0322 16.5098 24.8082 16.5098 24.5322C16.5098 24.2562 16.2858 24.0322 16.0098 24.0322Z" fill="#BDBDBD"/>
<path d="M16.0098 26.2881C15.7338 26.2881 15.5098 26.5121 15.5098 26.7881C15.5098 27.0641 15.7338 27.2881 16.0098 27.2881C16.2858 27.2881 16.5098 27.0641 16.5098 26.7881C16.5098 26.5121 16.2858 26.2881 16.0098 26.2881Z" fill="#BDBDBD"/>
</g>
<defs>
<clipPath id="clip0_7463_26017">
<rect width="32" height="32" fill="white"/>
</clipPath>
</defs>
</svg>
