<svg width="18" height="18" viewBox="0 0 18 18" fill="none" xmlns="http://www.w3.org/2000/svg">
<path d="M14.9986 8.25C14.9718 9.43778 14.6881 10.604 14.1688 11.6617C13.6494 12.7195 12.9078 13.6416 11.999 14.3594V16.375C11.999 16.5408 11.9358 16.6997 11.8233 16.8169C11.7107 16.9342 11.5582 17 11.399 17C11.2399 17 11.0873 16.9342 10.9748 16.8169C10.8623 16.6997 10.7991 16.5408 10.7991 16.375V3.25C10.7937 3.01516 10.8553 2.78394 10.9761 2.58558C11.0969 2.38722 11.2714 2.23063 11.4776 2.13562C11.7145 2.03523 11.9743 2.00889 12.2253 2.05984C12.4764 2.11079 12.7077 2.23681 12.8911 2.4225C14.2825 4.0131 15.0367 6.09831 14.9986 8.25ZM8.39938 2C8.24027 2 8.08768 2.06585 7.97517 2.18306C7.86266 2.30027 7.79945 2.45924 7.79945 2.625V6.375C7.79791 6.76141 7.68181 7.13789 7.46704 7.45294C7.25226 7.76798 6.94929 8.0062 6.59959 8.135V2.625C6.59959 2.45924 6.53638 2.30027 6.42387 2.18306C6.31136 2.06585 6.15877 2 5.99966 2C5.84055 2 5.68795 2.06585 5.57544 2.18306C5.46293 2.30027 5.39973 2.45924 5.39973 2.625V8.135C5.05002 8.0062 4.74706 7.76798 4.53228 7.45294C4.3175 7.13789 4.2014 6.76141 4.19986 6.375V2.625C4.19986 2.45924 4.13666 2.30027 4.02415 2.18306C3.91164 2.06585 3.75904 2 3.59993 2C3.44082 2 3.28822 2.06585 3.17572 2.18306C3.06321 2.30027 3 2.45924 3 2.625V6.375C3.00087 7.09513 3.24003 7.79293 3.67715 8.35078C4.11428 8.90864 4.72265 9.29244 5.39973 9.4375V16.375C5.39973 16.5408 5.46293 16.6997 5.57544 16.8169C5.68795 16.9342 5.84055 17 5.99966 17C6.15877 17 6.31136 16.9342 6.42387 16.8169C6.53638 16.6997 6.59959 16.5408 6.59959 16.375V9.4375C7.27666 9.29244 7.88503 8.90864 8.32216 8.35078C8.75929 7.79293 8.99844 7.09513 8.99931 6.375V2.625C8.99931 2.45924 8.93611 2.30027 8.8236 2.18306C8.71109 2.06585 8.55849 2 8.39938 2Z" fill="white"/>
<path d="M14.9986 8.25C14.9718 9.43778 14.6881 10.604 14.1688 11.6617C13.6494 12.7195 12.9078 13.6416 11.999 14.3594V16.375C11.999 16.5408 11.9358 16.6997 11.8233 16.8169C11.7107 16.9342 11.5582 17 11.399 17C11.2399 17 11.0873 16.9342 10.9748 16.8169C10.8623 16.6997 10.7991 16.5408 10.7991 16.375V3.25C10.7937 3.01516 10.8553 2.78394 10.9761 2.58558C11.0969 2.38722 11.2714 2.23063 11.4776 2.13562C11.7145 2.03523 11.9743 2.00889 12.2253 2.05984C12.4764 2.11079 12.7077 2.23681 12.8911 2.4225C14.2825 4.0131 15.0367 6.09831 14.9986 8.25ZM8.39938 2C8.24027 2 8.08768 2.06585 7.97517 2.18306C7.86266 2.30027 7.79945 2.45924 7.79945 2.625V6.375C7.79791 6.76141 7.68181 7.13789 7.46704 7.45294C7.25226 7.76798 6.94929 8.0062 6.59959 8.135V2.625C6.59959 2.45924 6.53638 2.30027 6.42387 2.18306C6.31136 2.06585 6.15877 2 5.99966 2C5.84055 2 5.68795 2.06585 5.57544 2.18306C5.46293 2.30027 5.39973 2.45924 5.39973 2.625V8.135C5.05002 8.0062 4.74706 7.76798 4.53228 7.45294C4.3175 7.13789 4.2014 6.76141 4.19986 6.375V2.625C4.19986 2.45924 4.13666 2.30027 4.02415 2.18306C3.91164 2.06585 3.75904 2 3.59993 2C3.44082 2 3.28822 2.06585 3.17572 2.18306C3.06321 2.30027 3 2.45924 3 2.625V6.375C3.00087 7.09513 3.24003 7.79293 3.67715 8.35078C4.11428 8.90864 4.72265 9.29244 5.39973 9.4375V16.375C5.39973 16.5408 5.46293 16.6997 5.57544 16.8169C5.68795 16.9342 5.84055 17 5.99966 17C6.15877 17 6.31136 16.9342 6.42387 16.8169C6.53638 16.6997 6.59959 16.5408 6.59959 16.375V9.4375C7.27666 9.29244 7.88503 8.90864 8.32216 8.35078C8.75929 7.79293 8.99844 7.09513 8.99931 6.375V2.625C8.99931 2.45924 8.93611 2.30027 8.8236 2.18306C8.71109 2.06585 8.55849 2 8.39938 2Z" fill="url(#paint0_linear_7462_33540)"/>
<defs>
<linearGradient id="paint0_linear_7462_33540" x1="9" y1="2" x2="9" y2="17" gradientUnits="userSpaceOnUse">
<stop offset="0.295469" stop-color="#F4F4F5"/>
<stop offset="0.673077" stop-color="#B5BAEB"/>
</linearGradient>
</defs>
</svg>
