<svg width="16" height="16" viewBox="0 0 16 16" fill="none" xmlns="http://www.w3.org/2000/svg">
<g clip-path="url(#clip0_1_9050)">
<path d="M12.6391 5.23478L14.7751 6.70358C15.0175 6.87038 15.0127 7.22957 14.7663 7.38997L12.9255 8.58638C12.8127 8.69918 12.6203 8.61877 12.6211 8.45917L12.6395 5.23438L12.6391 5.23478Z" fill="#FF5E00"/>
<path d="M8.47829 14.3999H5.61589C2.23549 14.3999 0.0286943 10.8527 1.52229 7.8203L3.10589 4.6055C5.58989 -0.437302 13.1707 1.2379 13.2979 6.8579L13.2823 9.6223C13.2675 12.2651 11.1211 14.3999 8.47829 14.3999Z" fill="#FFDB42"/>
<path d="M10.4145 6.31143C10.8484 6.31143 11.2001 5.95971 11.2001 5.52583C11.2001 5.09196 10.8484 4.74023 10.4145 4.74023C9.98063 4.74023 9.62891 5.09196 9.62891 5.52583C9.62891 5.95971 9.98063 6.31143 10.4145 6.31143Z" fill="black"/>
</g>
<defs>
<clipPath id="clip0_1_9050">
<rect width="16" height="16" fill="white"/>
</clipPath>
</defs>
</svg>
