<svg width="16" height="16" viewBox="0 0 16 16" fill="none" xmlns="http://www.w3.org/2000/svg">
<g clip-path="url(#clip0_1_9001)">
<path d="M13.9346 5.51443C14.2738 5.07243 14.4778 4.52123 14.4778 3.92083C14.4778 2.47283 13.3038 1.29883 11.8554 1.29883C10.9834 1.29883 10.213 1.72603 9.73617 2.38083H6.26218C5.78538 1.72603 5.01498 1.29883 4.14298 1.29883C2.69498 1.29883 1.52057 2.47283 1.52057 3.92083C1.52057 4.52803 1.72897 5.08563 2.07538 5.53003C1.46497 6.55763 1.10938 7.75443 1.10938 9.03763C1.10938 12.8484 4.19857 14.7016 8.00938 14.7016C11.8202 14.7016 14.9094 12.848 14.9094 9.03763C14.9094 7.74803 14.551 6.54563 13.9346 5.51443Z" fill="#ADB5BE"/>
<path d="M9.54127 7.70635L9.91487 9.29075C10.2045 10.5187 9.27287 11.6951 8.01127 11.6951C6.74967 11.6951 5.81847 10.5183 6.10767 9.29075L6.48127 7.70635C6.51887 7.54755 6.66047 7.43555 6.82327 7.43555H9.19927C9.36247 7.43555 9.50407 7.54755 9.54127 7.70635Z" fill="white"/>
<path d="M9.24334 8.23716C9.24334 8.58756 8.91694 8.90396 8.59974 9.12836C8.24654 9.37836 7.77414 9.37836 7.42094 9.12836C7.10414 8.90396 6.77734 8.58756 6.77734 8.23716V8.08516C6.77734 7.93796 6.89694 7.81836 7.04414 7.81836H8.97614C9.12334 7.81836 9.24294 7.93796 9.24294 8.08516L9.24334 8.23716Z" fill="black"/>
<path d="M5.83598 5.84766C5.40238 5.84766 5.05078 6.19926 5.05078 6.63286C5.05078 7.06646 5.40238 7.41806 5.83598 7.41806C6.26958 7.41806 6.62118 7.06646 6.62118 6.63286C6.62118 6.19926 6.26958 5.84766 5.83598 5.84766Z" fill="black"/>
<path d="M10.168 5.84766C9.73441 5.84766 9.38281 6.19926 9.38281 6.63286C9.38281 7.06646 9.73441 7.41806 10.168 7.41806C10.6016 7.41806 10.9532 7.06646 10.9532 6.63286C10.9532 6.19926 10.6016 5.84766 10.168 5.84766Z" fill="black"/>
<path d="M8.22248 9.20508H7.79688V10.2655H8.22248V9.20508Z" fill="black"/>
</g>
<defs>
<clipPath id="clip0_1_9001">
<rect width="16" height="16" fill="white"/>
</clipPath>
</defs>
</svg>
