<svg width="18" height="18" viewBox="0 0 18 18" fill="none" xmlns="http://www.w3.org/2000/svg">
<path d="M15.5104 8.35138C15.5104 4.75543 12.5953 1.84033 8.99933 1.84033C5.40338 1.84033 2.48828 4.75543 2.48828 8.35138V15.4542H15.5108L15.5104 8.35138Z" fill="#E32939"/>
<path d="M13.1996 8.45672C13.1996 6.13742 11.3195 4.25732 9.00018 4.25732C6.68088 4.25732 4.80078 6.13742 4.80078 8.45672V13.6182H13.2L13.1996 8.45672Z" fill="#EF4452"/>
<path d="M8.99845 6.91748C9.48085 6.91748 9.87235 7.30898 9.87235 7.79138V13.8731H8.125V7.79138C8.125 7.30898 8.51605 6.91748 8.99845 6.91748Z" fill="#F56570"/>
<path d="M16.1699 13.5977H1.82931C1.56438 13.5977 1.34961 13.8124 1.34961 14.0774V15.6803C1.34961 15.9452 1.56438 16.16 1.82931 16.16H16.1699C16.4348 16.16 16.6496 15.9452 16.6496 15.6803V14.0774C16.6496 13.8124 16.4348 13.5977 16.1699 13.5977Z" fill="#333D4B"/>
</svg>
