<svg width="16" height="16" viewBox="0 0 16 16" fill="none" xmlns="http://www.w3.org/2000/svg">
<g clip-path="url(#clip0_1_8968)">
<path d="M14.6459 7.94772L12.5147 4.60212C10.3391 1.18732 5.65873 1.18732 3.48313 4.60212L1.35193 7.94732C-0.00807017 10.0821 1.45153 12.8777 3.55873 13.5905C4.75073 14.0941 6.06873 14.4129 7.99913 14.4129C9.92953 14.4129 11.2471 14.0941 12.4395 13.5905C14.5471 12.8773 16.0067 10.0821 14.6463 7.94732L14.6459 7.94772Z" fill="#FFBA5E"/>
<path d="M12.5125 9.00254C11.6653 9.88614 10.2917 9.88614 9.44493 9.00254C8.59773 8.11894 7.22413 8.11894 6.37694 9.00254C5.52974 9.88614 4.15653 9.88614 3.30933 9.00254C2.70493 8.37214 1.83533 8.20014 1.07773 8.46894C0.170935 10.5145 1.61933 12.9341 3.55893 13.5901C4.75133 14.0937 6.06853 14.4125 7.99933 14.4125C9.93013 14.4125 11.2473 14.0937 12.4393 13.5901C14.3529 12.9429 15.7977 10.5797 14.9549 8.55214C14.1533 8.16534 13.1737 8.31294 12.5125 9.00254Z" fill="#FFE3A0"/>
<path d="M12.3134 1.53984C13.141 2.36744 13.1366 3.71304 12.3042 4.54544C11.4718 5.37784 10.1258 5.38224 9.29861 4.55464C8.47101 3.72704 11.4862 0.712239 12.3134 1.53984Z" fill="#FFBA5E"/>
<path d="M3.68822 1.53984C2.86062 2.36744 2.86502 3.71304 3.69742 4.54544C4.52982 5.37784 5.87582 5.38224 6.70302 4.55464C7.53062 3.72704 4.51542 0.712239 3.68822 1.53984Z" fill="#FFBA5E"/>
<path d="M9.93969 8.23403C10.3594 8.23403 10.6997 7.89592 10.6997 7.47883C10.6997 7.06175 10.3594 6.72363 9.93969 6.72363C9.51995 6.72363 9.17969 7.06175 9.17969 7.47883C9.17969 7.89592 9.51995 8.23403 9.93969 8.23403Z" fill="black"/>
<path d="M6.05297 8.23403C6.47271 8.23403 6.81297 7.89592 6.81297 7.47883C6.81297 7.06175 6.47271 6.72363 6.05297 6.72363C5.63323 6.72363 5.29297 7.06175 5.29297 7.47883C5.29297 7.89592 5.63323 8.23403 6.05297 8.23403Z" fill="black"/>
<path d="M8.53099 10.1089L8.81219 9.70167C8.94979 9.50247 8.80699 9.23047 8.56499 9.23047H7.43219C7.19139 9.23047 7.04939 9.50087 7.18619 9.69887L7.46899 10.1089C7.72539 10.4805 8.27459 10.4805 8.53099 10.1089Z" fill="#FA878F"/>
</g>
<defs>
<clipPath id="clip0_1_8968">
<rect width="16" height="16" fill="white"/>
</clipPath>
</defs>
</svg>
