<svg width="16" height="16" viewBox="0 0 16 16" fill="none" xmlns="http://www.w3.org/2000/svg">
<g clip-path="url(#clip0_1_9011)">
<path d="M6.2025 2.70274C5.4745 1.83914 4.1845 1.72914 3.3209 2.45674C2.4573 3.18474 2.3473 4.47474 3.0749 5.33834L4.4365 6.95394L7.5637 4.31834L6.2025 2.70274Z" fill="#FFC450"/>
<path d="M9.75573 2.70274C10.4837 1.83914 11.7737 1.72914 12.6373 2.45674C13.5009 3.18474 13.6109 4.47474 12.8833 5.33834L11.5217 6.95394L8.39453 4.31834L9.75573 2.70274Z" fill="#FFC450"/>
<path d="M14.1469 6.69257C13.4117 4.63417 11.4617 3.25977 9.27613 3.25977H6.72053C4.53453 3.25977 2.58493 4.63377 1.84973 6.69257L1.69973 7.11257C1.31533 8.18937 1.29813 9.36337 1.65173 10.451C2.34413 12.5818 4.33013 14.0246 6.57053 14.0246H9.42613C11.6669 14.0246 13.6525 12.5818 14.3449 10.451C14.6985 9.36337 14.6813 8.18937 14.2969 7.11257L14.1469 6.69257Z" fill="#FFC450"/>
<path d="M9.31107 10.6735H9.31787L9.30068 10.5799C9.29748 10.5631 9.29548 10.5459 9.29148 10.5295L9.01028 8.97752H9.00587C8.93667 8.52192 8.51428 8.16992 7.99788 8.16992C7.48148 8.16992 7.05948 8.52192 6.98988 8.97752H6.98548L6.69948 10.5439C6.69948 10.5439 6.69947 10.5463 6.69867 10.5475L6.68268 10.6347H6.68907C6.68187 10.6863 6.67188 10.7367 6.67188 10.7899C6.67188 11.4611 7.26547 12.0051 7.99747 12.0051C8.72947 12.0051 9.32347 11.4611 9.32347 10.7899C9.32347 10.7499 9.31507 10.7123 9.31107 10.6735Z" fill="#FF8934"/>
<path d="M6.68587 10.6631C6.67947 10.7051 6.67188 10.7463 6.67188 10.7899C6.67188 11.4611 7.26548 12.0051 7.99748 12.0051C8.72948 12.0051 9.32347 11.4611 9.32347 10.7899C9.32347 10.7499 9.31468 10.7123 9.31068 10.6735H9.31748L9.31588 10.6651C8.94828 10.5535 8.49268 10.4863 7.99788 10.4863C7.50548 10.4863 7.05267 10.5527 6.68587 10.6631Z" fill="black"/>
<path d="M6.44731 9.2452C6.76123 9.2452 7.01571 8.99072 7.01571 8.6768C7.01571 8.36288 6.76123 8.1084 6.44731 8.1084C6.13339 8.1084 5.87891 8.36288 5.87891 8.6768C5.87891 8.99072 6.13339 9.2452 6.44731 9.2452Z" fill="black"/>
<path d="M9.59184 9.2452C9.90576 9.2452 10.1602 8.99072 10.1602 8.6768C10.1602 8.36288 9.90576 8.1084 9.59184 8.1084C9.27792 8.1084 9.02344 8.36288 9.02344 8.6768C9.02344 8.99072 9.27792 9.2452 9.59184 9.2452Z" fill="black"/>
<path d="M3.81514 11.5447C3.32554 11.4123 2.33594 11.1459 1.90234 11.0391C2.22794 11.7251 2.69314 12.3203 3.25994 12.7923L3.92714 11.8623C4.01074 11.7459 3.95354 11.5823 3.81514 11.5447Z" fill="#422709"/>
<path d="M3.42653 9.89515L2.25413 8.90635C2.13293 8.80435 2.16853 8.60915 2.31773 8.55595L3.36933 8.18275C3.51293 8.13155 3.55293 7.94715 3.44293 7.84155L1.98093 6.43555L1.93493 6.44875C1.90613 6.51915 1.87573 6.58835 1.84973 6.66075L1.69973 7.08075C1.31533 8.15755 1.29813 9.33155 1.65173 10.4191C1.70653 10.5875 1.77213 10.7499 1.84253 10.9095C2.17053 10.7559 2.94333 10.4251 3.37573 10.2411C3.51653 10.1811 3.54373 9.99435 3.42693 9.89555L3.42653 9.89515Z" fill="#422709"/>
<path d="M12.5513 7.84155C12.4413 7.94715 12.4813 8.13195 12.6249 8.18275L13.6765 8.55595C13.8257 8.60915 13.8613 8.80395 13.7401 8.90635L12.5677 9.89515C12.4509 9.99395 12.4781 10.1807 12.6189 10.2407C13.0529 10.4251 13.8289 10.7575 14.1549 10.9107C14.2257 10.7507 14.2913 10.5879 14.3465 10.4191C14.7001 9.33155 14.6829 8.15755 14.2985 7.08075L14.1485 6.66075C14.1229 6.58915 14.0925 6.52035 14.0637 6.44995L14.0137 6.43555L12.5517 7.84155H12.5513Z" fill="#422709"/>
<path d="M12.0663 11.8621L12.7351 12.7941C13.3031 12.3213 13.7695 11.7253 14.0955 11.0381C13.6639 11.1441 12.6699 11.4121 12.1783 11.5449C12.0399 11.5821 11.9827 11.7457 12.0663 11.8621Z" fill="#422709"/>
<path d="M8.16547 11.9594C8.11067 11.9658 8.05667 11.9746 7.99987 11.9746C7.94707 11.9746 7.89667 11.9658 7.84547 11.9602C7.63827 12.533 7.16067 13.3894 6.10547 13.9706C6.25987 13.9846 6.41507 13.9934 6.57227 13.9934H9.42787C9.59027 13.9934 9.75107 13.9838 9.91067 13.9686C8.85867 13.387 8.37667 12.5314 8.16587 11.959L8.16547 11.9594Z" fill="#422709"/>
</g>
<defs>
<clipPath id="clip0_1_9011">
<rect width="16" height="16" fill="white"/>
</clipPath>
</defs>
</svg>
