<svg width="32" height="32" viewBox="0 0 32 32" fill="none" xmlns="http://www.w3.org/2000/svg">
<g clip-path="url(#clip0_7463_25966)">
<path d="M26.4802 18.3015C24.6714 16.1911 24.2634 12.4727 24.2634 12.4727H7.73696C7.73696 12.4727 7.32896 16.1911 5.52016 18.3015C3.71056 20.4127 3.00736 24.3319 5.52016 27.3471H26.4802C28.993 24.3319 28.2898 20.4127 26.4802 18.3015Z" fill="#FFE3A0"/>
<path d="M22.4171 22.5088L19.0459 21.228C17.0779 20.48 14.9035 20.48 12.9355 21.228L9.56428 22.5088C7.94188 23.1256 6.59788 24.2832 5.74748 25.7656C5.39788 26.3736 5.17708 27.0472 5.00988 27.7288L4.57868 29.48C4.51388 29.7448 4.71388 30.0008 4.98668 30.0008H26.9955C27.2683 30.0008 27.4683 29.7448 27.4035 29.48L26.9723 27.7288C26.8043 27.048 26.5835 26.3744 26.2347 25.7656C25.3835 24.2832 24.0395 23.1248 22.4171 22.5088Z" fill="#FFCCA8"/>
<path d="M24.6648 14.8163C24.0888 15.3283 23.4008 15.6242 22.6888 15.7122C21.7768 17.7522 19.9688 19.2962 17.7608 19.8403V21.4723C17.7608 22.4403 16.9688 23.2243 16.0008 23.2243C15.0328 23.2243 14.2408 22.4403 14.2408 21.4723V19.8483C12.0328 19.3042 10.2168 17.7683 9.30482 15.7283C8.48082 15.7043 7.66482 15.4083 7.00882 14.8163C5.52882 13.4803 5.41682 11.2083 6.75282 9.73625L7.40882 10.3283L7.41682 10.3363C7.54482 13.2163 9.16082 15.3363 9.16082 15.3363C9.16082 14.2003 9.44082 13.2723 9.83282 12.5203C10.4008 11.4162 11.2248 10.6963 11.8408 10.2803L12.6648 9.81625L14.7128 8.65625C14.7128 8.65625 15.1128 8.90425 15.7768 9.25625C16.4328 9.60025 17.3608 10.0483 18.4088 10.4483C18.4088 10.4483 20.3128 11.2563 21.5928 12.7443C22.2328 13.4803 22.7128 14.3923 22.7128 15.4563C22.7128 15.4563 23.9928 13.5123 24.2488 10.3443L24.2648 10.3202L24.9128 9.73625C26.2488 11.2083 26.1368 13.4803 24.6648 14.8163Z" fill="#FFCCA8"/>
<path d="M13.9323 13.3202C14.3631 13.3202 14.7123 12.9012 14.7123 12.3842C14.7123 11.8673 14.3631 11.4482 13.9323 11.4482C13.5016 11.4482 13.1523 11.8673 13.1523 12.3842C13.1523 12.9012 13.5016 13.3202 13.9323 13.3202Z" fill="black"/>
<path d="M18.0495 13.3202C18.4803 13.3202 18.8295 12.9012 18.8295 12.3842C18.8295 11.8673 18.4803 11.4482 18.0495 11.4482C17.6187 11.4482 17.2695 11.8673 17.2695 12.3842C17.2695 12.9012 17.6187 13.3202 18.0495 13.3202Z" fill="black"/>
<path d="M16.9701 15.7451C17.1453 15.7451 17.2701 15.9131 17.2237 16.0827C17.0757 16.6195 16.5845 17.0139 16.0005 17.0139C15.4165 17.0139 14.9253 16.6195 14.7773 16.0827C14.7309 15.9139 14.8557 15.7451 15.0309 15.7451H16.9709H16.9701Z" fill="#5C2F17"/>
<path d="M24.2804 9.81559C24.2724 9.92759 24.2644 10.0316 24.2564 10.1356C24.2564 10.2076 24.2484 10.2716 24.2484 10.3436C23.9924 13.5116 22.7124 15.4556 22.7124 15.4556C22.7124 14.3916 22.2324 13.4796 21.5924 12.7436C20.3124 11.2556 18.4084 10.4476 18.4084 10.4476C16.3124 9.65559 14.7124 8.65559 14.7124 8.65559L12.6644 9.81559C12.6644 9.81559 12.3124 9.95959 11.8404 10.2796C11.2244 10.6956 10.4004 11.4156 9.83239 12.5196C9.44039 13.2716 9.16039 14.1996 9.16039 15.3356C9.16039 15.3356 7.54439 13.2156 7.41639 10.3356C7.40839 10.3036 7.40839 10.2716 7.40839 10.2396C7.40839 10.1436 7.40039 10.0556 7.40039 9.95959H7.41639C7.42439 9.84759 7.41639 9.73559 7.42439 9.62359C7.66439 7.08759 9.04839 4.8636 11.0564 3.47959C12.1764 2.7116 13.4884 2.1996 14.8964 2.0476C19.7444 1.5276 23.8644 5.1676 24.2484 9.81559H24.2804Z" fill="#FFE3A0"/>
<path d="M15.8324 7.56738H7.93959C7.52199 7.56738 7.18359 7.90578 7.18359 8.32338V9.12178C7.18359 9.40818 7.41959 9.63618 7.70519 9.62338C9.32679 9.54898 14.3428 9.46018 15.9116 11.005C17.4804 9.46018 22.3372 9.54898 23.9588 9.62338C24.2452 9.63618 24.4804 9.40818 24.4804 9.12178V8.32338C24.4804 7.90578 24.142 7.56738 23.7244 7.56738H15.8308H15.8324Z" fill="#A2C2C3"/>
<path d="M15.927 9.68703C16.3149 9.68703 16.6294 9.37255 16.6294 8.98463C16.6294 8.5967 16.3149 8.28223 15.927 8.28223C15.5391 8.28223 15.2246 8.5967 15.2246 8.98463C15.2246 9.37255 15.5391 9.68703 15.927 9.68703Z" fill="#CCDFE3"/>
<path d="M19.2061 26.2055L16.4109 28.5087C16.1717 28.7055 15.8277 28.7055 15.5885 28.5087L12.7933 26.2055C12.4957 25.9599 12.0581 25.9895 11.7957 26.2719L8.33008 29.9999H23.6693L20.2037 26.2719C19.9413 25.9895 19.5037 25.9607 19.2061 26.2055Z" fill="#37605F"/>
<path d="M15.9993 23.9144C14.4529 23.9144 13.1953 22.6568 13.1953 21.1096C13.1953 20.944 13.3297 20.8096 13.4953 20.8096C13.6609 20.8096 13.7953 20.944 13.7953 21.1096C13.7953 22.3256 14.7833 23.3144 15.9993 23.3144C17.2153 23.3144 18.2041 22.3256 18.2041 21.1096C18.2041 20.944 18.3385 20.8096 18.5041 20.8096C18.6697 20.8096 18.8041 20.944 18.8041 21.1096C18.8041 22.6568 17.5465 23.9144 15.9993 23.9144Z" fill="#79A4A2"/>
</g>
<defs>
<clipPath id="clip0_7463_25966">
<rect width="32" height="32" fill="white"/>
</clipPath>
</defs>
</svg>
