<svg width="16" height="16" viewBox="0 0 16 16" fill="none" xmlns="http://www.w3.org/2000/svg">
<g clip-path="url(#clip0_1_8955)">
<path d="M4.10586 7.75758C6.07575 7.75758 7.67266 6.15172 7.67266 4.17078C7.67266 2.18985 6.07575 0.583984 4.10586 0.583984C2.13597 0.583984 0.539062 2.18985 0.539062 4.17078C0.539062 6.15172 2.13597 7.75758 4.10586 7.75758Z" fill="#6B7683"/>
<path d="M4.10702 6.4662C5.36777 6.4662 6.38982 5.43842 6.38982 4.1706C6.38982 2.90278 5.36777 1.875 4.10702 1.875C2.84626 1.875 1.82422 2.90278 1.82422 4.1706C1.82422 5.43842 2.84626 6.4662 4.10702 6.4662Z" fill="#FA878F"/>
<path d="M11.8988 7.75758C13.8687 7.75758 15.4656 6.15172 15.4656 4.17078C15.4656 2.18985 13.8687 0.583984 11.8988 0.583984C9.92894 0.583984 8.33203 2.18985 8.33203 4.17078C8.33203 6.15172 9.92894 7.75758 11.8988 7.75758Z" fill="#6B7683"/>
<path d="M11.9 6.4662C13.1607 6.4662 14.1828 5.43842 14.1828 4.1706C14.1828 2.90278 13.1607 1.875 11.9 1.875C10.6392 1.875 9.61719 2.90278 9.61719 4.1706C9.61719 5.43842 10.6392 6.4662 11.9 6.4662Z" fill="#FA878F"/>
<path d="M5.92811 13.6781L3.82371 11.5621C1.89731 9.62486 1.89731 6.49566 3.82371 4.55886C6.08771 2.28246 9.77131 2.28246 12.0349 4.55886C13.9613 6.49606 13.9613 9.62526 12.0349 11.5621L9.93051 13.6781C8.82691 14.7877 7.03131 14.7877 5.92771 13.6781H5.92811Z" fill="#6B7683"/>
<path d="M9.23831 10.7655C9.60724 10.7655 9.90631 10.4682 9.90631 10.1015C9.90631 9.73478 9.60724 9.4375 9.23831 9.4375C8.86939 9.4375 8.57031 9.73478 8.57031 10.1015C8.57031 10.4682 8.86939 10.7655 9.23831 10.7655Z" fill="black"/>
<path d="M6.75784 10.7655C7.12677 10.7655 7.42584 10.4682 7.42584 10.1015C7.42584 9.73478 7.12677 9.4375 6.75784 9.4375C6.38892 9.4375 6.08984 9.73478 6.08984 10.1015C6.08984 10.4682 6.38892 10.7655 6.75784 10.7655Z" fill="black"/>
<path d="M8.37194 13.0096L8.76314 12.4432C8.89274 12.2556 8.75834 12 8.53074 12H7.46514C7.23834 12 7.10514 12.2544 7.23394 12.4408L7.62674 13.0096C7.80674 13.2704 8.19234 13.2704 8.37234 13.0096H8.37194Z" fill="#FA878F"/>
</g>
<defs>
<clipPath id="clip0_1_8955">
<rect width="16" height="16" fill="white"/>
</clipPath>
</defs>
</svg>
