<svg width="32" height="32" viewBox="0 0 32 32" fill="none" xmlns="http://www.w3.org/2000/svg">
<g clip-path="url(#clip0_7462_34155)">
<path d="M22.4938 22.4303L19.0882 21.1367C17.0994 20.3815 14.9034 20.3815 12.9146 21.1367L9.50901 22.4303C7.86981 23.0535 6.51221 24.2231 5.65221 25.7207C5.29941 26.3351 5.07621 27.0159 4.90661 27.7039L4.47141 29.4735C4.40581 29.7407 4.60821 29.9991 4.88341 29.9991H27.1194C27.3946 29.9991 27.597 29.7407 27.5314 29.4735L27.0962 27.7039C26.9266 27.0159 26.7034 26.3351 26.3506 25.7207C25.4906 24.2223 24.1338 23.0527 22.4938 22.4303Z" fill="#3E26B1"/>
<path d="M16.0009 19.9646C20.0895 19.9646 23.4041 16.6501 23.4041 12.5614C23.4041 8.47273 20.0895 5.1582 16.0009 5.1582C11.9122 5.1582 8.59766 8.47273 8.59766 12.5614C8.59766 16.6501 11.9122 19.9646 16.0009 19.9646Z" fill="#FFB582"/>
<path d="M9.2433 15.5502C10.8803 15.5502 12.2073 14.3056 12.2073 12.7702C12.2073 11.2349 10.8803 9.99023 9.2433 9.99023C7.60632 9.99023 6.2793 11.2349 6.2793 12.7702C6.2793 14.3056 7.60632 15.5502 9.2433 15.5502Z" fill="#FFB582"/>
<path d="M22.7589 15.5502C24.3959 15.5502 25.7229 14.3056 25.7229 12.7702C25.7229 11.2349 24.3959 9.99023 22.7589 9.99023C21.1219 9.99023 19.7949 11.2349 19.7949 12.7702C19.7949 14.3056 21.1219 15.5502 22.7589 15.5502Z" fill="#FFB582"/>
<path d="M16.9799 15.9297C17.1567 15.9297 17.2831 16.1001 17.2359 16.2705C17.0863 16.8129 16.5895 17.2113 15.9999 17.2113C15.4103 17.2113 14.9135 16.8129 14.7639 16.2705C14.7167 16.1001 14.8431 15.9297 15.0199 15.9297H16.9799Z" fill="#5C2F17"/>
<path d="M18.2688 23.9729H13.748L14.2336 20.7513V18.8281H17.784V20.7553L18.2688 23.9729Z" fill="#FFB582"/>
<path d="M18.2515 23.9736H16.0003H13.7491L9.4707 30H16.0003H22.5299L18.2515 23.9736Z" fill="#786DE7"/>
<path d="M6.71106 8.93736L8.29506 10.9166C8.29506 10.9166 11.5663 9.74696 12.4615 8.62776C13.3767 7.48376 15.9327 5.41256 18.8671 6.33896L20.4583 9.84136L22.9679 10.9166C23.3895 10.8494 23.7079 10.631 23.8847 10.203L24.3087 8.60776C24.5295 7.28376 23.5095 5.85896 22.2191 5.45976C22.2191 5.45976 20.9639 1.34536 14.5703 2.09016C8.17666 2.83496 8.07746 8.07656 8.07746 8.07656L6.85346 8.46856C6.65506 8.53176 6.58066 8.77496 6.71106 8.93736Z" fill="#FFDB87"/>
<path d="M16.3255 10.9065C16.1351 11.0481 15.8831 11.0481 15.6927 10.9065C12.6367 8.63135 8.30469 10.7737 8.30469 10.7737C8.30469 10.7737 10.6255 14.5065 12.9919 14.7073C14.4447 14.8305 15.2511 14.1377 15.6567 13.5849C15.8303 13.3489 16.1879 13.3489 16.3607 13.5849C16.7663 14.1385 17.5727 14.8305 19.0255 14.7073C21.3927 14.5065 23.7127 10.7737 23.7127 10.7737C23.7127 10.7737 19.3815 8.63055 16.3255 10.9065ZM13.3679 13.6489C12.3655 13.6489 11.5527 13.0409 11.5527 12.2905C11.5527 11.5401 12.3655 10.9321 13.3679 10.9321C14.3703 10.9321 15.1831 11.5401 15.1831 12.2905C15.1831 13.0409 14.3703 13.6489 13.3679 13.6489ZM18.4399 13.6489C17.4375 13.6489 16.6247 13.0409 16.6247 12.2905C16.6247 11.5401 17.4375 10.9321 18.4399 10.9321C19.4423 10.9321 20.2551 11.5401 20.2551 12.2905C20.2551 13.0409 19.4423 13.6489 18.4399 13.6489Z" fill="#EF3452"/>
<path d="M13.831 13.2369C14.2662 13.2369 14.619 12.8135 14.619 12.2913C14.619 11.7691 14.2662 11.3457 13.831 11.3457C13.3958 11.3457 13.043 11.7691 13.043 12.2913C13.043 12.8135 13.3958 13.2369 13.831 13.2369Z" fill="black"/>
<path d="M18.1728 13.2369C18.608 13.2369 18.9608 12.8135 18.9608 12.2913C18.9608 11.7691 18.608 11.3457 18.1728 11.3457C17.7376 11.3457 17.3848 11.7691 17.3848 12.2913C17.3848 12.8135 17.7376 13.2369 18.1728 13.2369Z" fill="black"/>
</g>
<defs>
<clipPath id="clip0_7462_34155">
<rect width="32" height="32" fill="white"/>
</clipPath>
</defs>
</svg>
