<svg width="16" height="16" viewBox="0 0 16 16" fill="none" xmlns="http://www.w3.org/2000/svg">
<g clip-path="url(#clip0_1_8943)">
<path d="M8.43285 2.66016L11.4732 2.73376L12.6496 1.81816C12.7912 1.70816 12.9984 1.76616 13.0624 1.93376L15.2296 7.60936C15.3276 7.91096 15.4512 8.83416 15.3808 9.47856C14.9692 12.375 11.824 14.239 8.00165 14.239C4.17925 14.239 1.03405 12.375 0.622448 9.47856C0.551648 8.83456 0.675647 7.91096 0.773648 7.60936L2.94085 1.93376C3.00485 1.76616 3.21245 1.70776 3.35405 1.81816L4.53005 2.73376L7.57045 2.66016H8.43285Z" fill="#FFB5AD"/>
<path d="M6.47014 6.73236C6.88943 6.73236 7.22934 6.39156 7.22934 5.97116C7.22934 5.55076 6.88943 5.20996 6.47014 5.20996C6.05084 5.20996 5.71094 5.55076 5.71094 5.97116C5.71094 6.39156 6.05084 6.73236 6.47014 6.73236Z" fill="black"/>
<path d="M9.53264 6.73236C9.95193 6.73236 10.2918 6.39156 10.2918 5.97116C10.2918 5.55076 9.95193 5.20996 9.53264 5.20996C9.11334 5.20996 8.77344 5.55076 8.77344 5.97116C8.77344 6.39156 9.11334 6.73236 9.53264 6.73236Z" fill="black"/>
<path d="M9.31697 7.09375H6.68377C5.40004 7.09375 4.35938 8.13442 4.35938 9.41815V9.42415C4.35938 10.7079 5.40004 11.7486 6.68377 11.7486H9.31697C10.6007 11.7486 11.6414 10.7079 11.6414 9.42415V9.41815C11.6414 8.13442 10.6007 7.09375 9.31697 7.09375Z" fill="#FA878F"/>
<path d="M6.65045 10.3993C7.1305 10.3993 7.51965 9.96425 7.51965 9.42765C7.51965 8.89105 7.1305 8.45605 6.65045 8.45605C6.1704 8.45605 5.78125 8.89105 5.78125 9.42765C5.78125 9.96425 6.1704 10.3993 6.65045 10.3993Z" fill="#E32939"/>
<path d="M9.34967 10.3993C9.82971 10.3993 10.2189 9.96425 10.2189 9.42765C10.2189 8.89105 9.82971 8.45605 9.34967 8.45605C8.86962 8.45605 8.48047 8.89105 8.48047 9.42765C8.48047 9.96425 8.86962 10.3993 9.34967 10.3993Z" fill="#E32939"/>
</g>
<defs>
<clipPath id="clip0_1_8943">
<rect width="16" height="16" fill="white"/>
</clipPath>
</defs>
</svg>
