<svg width="16" height="16" viewBox="0 0 16 16" fill="none" xmlns="http://www.w3.org/2000/svg">
<g clip-path="url(#clip0_1_8978)">
<path d="M7.98828 4.04644C9.01028 4.15284 9.99228 4.70004 10.6011 5.69444L10.7851 5.99484L11.2055 5.19724L9.07228 1.96484L7.98828 4.04644Z" fill="#CECFCF"/>
<path d="M12.9973 9.60864L10.7853 5.99664L10.6013 5.69664C9.99331 4.70064 9.00931 4.15264 7.98931 4.04864C7.83731 4.03264 7.68531 4.02864 7.53331 4.02864L6.78531 1.25664C6.54931 0.356639 5.62931 -0.179361 4.72931 0.0566385C3.83331 0.292638 3.29331 1.21264 3.52931 2.11264L4.53731 5.86064L2.24531 9.60864C0.821314 11.9366 2.49731 14.9286 5.22531 14.9286H10.0133C12.7453 14.9286 14.4213 11.9366 12.9973 9.60864ZM6.04531 12.1286C5.66931 12.1286 5.36531 11.8246 5.36531 11.4486C5.36531 11.0726 5.66931 10.7686 6.04531 10.7686C6.42131 10.7686 6.72931 11.0726 6.72931 11.4486C6.72931 11.8246 6.42131 12.1286 6.04531 12.1286ZM8.24931 13.0446L7.74131 13.7966C7.66531 13.9086 7.49731 13.9086 7.42131 13.7966L6.91331 13.0446C6.82531 12.9166 6.91731 12.7406 7.07331 12.7406H8.08931C8.24531 12.7406 8.33731 12.9166 8.24931 13.0446ZM9.19331 12.1286C8.81731 12.1286 8.51331 11.8246 8.51331 11.4486C8.51331 11.0726 8.81731 10.7686 9.19331 10.7686C9.56931 10.7686 9.87331 11.0726 9.87331 11.4486C9.87331 11.8246 9.56931 12.1286 9.19331 12.1286Z" fill="#DFDFDF"/>
<path d="M14.0286 3.63062L13.2134 2.39502C13.0366 2.12702 12.7366 1.96582 12.4154 1.96582H9.07422L11.2074 5.19822L11.309 5.35222C11.7842 6.10342 12.7786 6.32662 13.5298 5.85142C14.281 5.37622 14.5038 4.38182 14.0286 3.63062Z" fill="#DFDFDF"/>
<path d="M6.04759 10.7686C5.67199 10.7686 5.36719 11.073 5.36719 11.449C5.36719 11.825 5.67199 12.1294 6.04759 12.1294C6.42319 12.1294 6.72799 11.825 6.72799 11.449C6.72799 11.073 6.42359 10.7686 6.04759 10.7686Z" fill="black"/>
<path d="M9.19603 10.7686C8.82043 10.7686 8.51562 11.073 8.51562 11.449C8.51562 11.825 8.82003 12.1294 9.19603 12.1294C9.57203 12.1294 9.87643 11.825 9.87643 11.449C9.87643 11.073 9.57203 10.7686 9.19603 10.7686Z" fill="black"/>
<path d="M8.08976 12.7422H7.07336C6.91776 12.7422 6.82536 12.9162 6.91256 13.0454L7.42096 13.7954C7.49816 13.909 7.66536 13.909 7.74256 13.7954L8.25096 13.0454C8.33816 12.9166 8.24616 12.7422 8.09016 12.7422H8.08976Z" fill="black"/>
</g>
<defs>
<clipPath id="clip0_1_8978">
<rect width="16" height="16" fill="white"/>
</clipPath>
</defs>
</svg>
