<svg width="32" height="32" viewBox="0 0 32 32" fill="none" xmlns="http://www.w3.org/2000/svg">
<g clip-path="url(#clip0_7462_34238)">
<path d="M9.57404 22.5076C7.95164 23.1244 6.60764 24.282 5.75724 25.7644C5.40764 26.3724 5.18684 27.046 5.01964 27.7276L4.58844 29.4788C4.52364 29.7436 4.72364 29.9996 4.99644 29.9996H13.3932C13.3932 29.9996 12.174 26.6252 9.70524 22.458L9.57484 22.5076H9.57404Z" fill="#333333"/>
<path d="M27.4121 29.4785L26.9809 27.7273C26.8129 27.0465 26.5921 26.3729 26.2433 25.7649C25.3921 24.2817 24.0489 23.1241 22.4265 22.5081L22.2193 22.4297C19.7385 26.6097 18.5137 30.0001 18.5137 30.0001H27.0049C27.2777 30.0001 27.4777 29.7441 27.4129 29.4793L27.4121 29.4785Z" fill="#333333"/>
<path d="M26.0703 16.8657C26.4351 16.4161 26.1095 15.7441 25.5311 15.7441H6.37666C5.79826 15.7441 5.47266 16.4161 5.83746 16.8657C7.36146 18.7417 8.64626 20.6721 9.70546 22.4593C12.1751 26.6257 13.3935 30.0009 13.3935 30.0009H18.5143C18.5143 30.0009 19.7391 26.6105 22.2199 22.4305C23.2759 20.6513 24.5543 18.7321 26.0703 16.8657ZM12.0951 21.9225L14.2535 20.6681L16.0103 23.2145L13.8135 26.1113L12.0951 21.9225ZM16.0015 28.2065C15.5887 28.2065 15.2535 27.8721 15.2535 27.4585C15.2535 27.0449 15.5887 26.7105 16.0015 26.7105C16.4143 26.7105 16.7495 27.0457 16.7495 27.4585C16.7495 27.8713 16.4151 28.2065 16.0015 28.2065ZM18.2199 26.1113L16.0231 23.2145L17.7799 20.6681L19.9383 21.9225L18.2199 26.1113Z" fill="#D12030"/>
<path d="M16 26.709C15.5872 26.709 15.252 27.0442 15.252 27.457C15.252 27.8698 15.5872 28.205 16 28.205C16.4128 28.205 16.748 27.8706 16.748 27.457C16.748 27.0434 16.4136 26.709 16 26.709Z" fill="#333333"/>
<path d="M24.6718 14.8162C24.1038 15.3362 23.4078 15.6322 22.6958 15.7122C21.7918 17.7522 19.9758 19.3042 17.7678 19.8482V21.4722C17.7678 22.4402 16.9758 23.2242 16.0078 23.2242C15.0398 23.2242 14.2558 22.4402 14.2558 21.4722V19.8562C12.0478 19.3122 10.2238 17.7762 9.31179 15.7362C8.49579 15.7202 7.67179 15.4162 7.01579 14.8162C5.54379 13.4802 5.42379 11.2082 6.75979 9.7362L7.43179 10.3442L8.77579 11.5522C9.33579 8.0722 12.3598 5.4082 15.9998 5.4082C19.5598 5.4082 22.5278 7.9522 23.1838 11.3122L24.3838 10.2242L24.9278 9.7362C26.2558 11.2082 26.1438 13.4802 24.6718 14.8162Z" fill="#FFCCA8"/>
<path d="M13.9421 13.3193C14.3729 13.3193 14.7221 12.9002 14.7221 12.3833C14.7221 11.8663 14.3729 11.4473 13.9421 11.4473C13.5113 11.4473 13.1621 11.8663 13.1621 12.3833C13.1621 12.9002 13.5113 13.3193 13.9421 13.3193Z" fill="black"/>
<path d="M18.0593 13.3193C18.4901 13.3193 18.8393 12.9002 18.8393 12.3833C18.8393 11.8663 18.4901 11.4473 18.0593 11.4473C17.6285 11.4473 17.2793 11.8663 17.2793 12.3833C17.2793 12.9002 17.6285 13.3193 18.0593 13.3193Z" fill="black"/>
<path d="M15.8309 2.0072L15.8421 2L15.5845 2.02C15.3949 2.028 15.2077 2.0288 15.0157 2.0496C14.9629 2.0552 14.9133 2.0696 14.8613 2.076L12.2653 2.2776C11.0437 2.3728 10.0469 3.2912 9.85089 4.5L9.83329 4.6088L9.05809 4.836C8.07969 5.1224 7.40929 6.0216 7.41409 7.0408L7.42849 10.34L9.07889 11.8336C9.46529 9.0848 11.1557 7.012 13.1901 7.012C14.3021 7.012 15.3101 7.6352 16.0621 8.6456C16.8133 7.6352 17.8213 7.012 18.9341 7.012C20.8557 7.012 22.4725 8.8616 22.9717 11.384C23.0157 11.3832 23.0589 11.3808 23.1037 11.38L24.3813 10.224C24.2277 5.652 20.4525 1.9496 15.8309 2.0064V2.0072Z" fill="#333333"/>
<path d="M17.5225 15.9844H14.5801V16.6612H17.5225V15.9844Z" fill="#5C2F17"/>
<path d="M13.8125 15.9844L14.5981 17.446L15.3509 15.9844H13.8125Z" fill="#5C2F17"/>
<path d="M16.543 15.9844L17.3286 17.446L18.0814 15.9844H16.543Z" fill="#5C2F17"/>
<path d="M14.2522 20.666L12.0938 21.9204L13.8121 26.1092L16.0089 23.2124L14.2522 20.666Z" fill="#F0F3F6"/>
<path d="M17.7771 20.666L16.0195 23.2124L18.2171 26.1092L19.9347 21.9204L17.7771 20.666Z" fill="#F0F3F6"/>
</g>
<defs>
<clipPath id="clip0_7462_34238">
<rect width="32" height="32" fill="white"/>
</clipPath>
</defs>
</svg>
