<svg width="20" height="20" viewBox="0 0 20 20" fill="none" xmlns="http://www.w3.org/2000/svg">
<mask id="mask0_8959_37068" style="mask-type:alpha" maskUnits="userSpaceOnUse" x="0" y="0" width="20" height="20">
<rect width="20" height="20" fill="#D9D9D9"/>
</mask>
<g mask="url(#mask0_8959_37068)">
<path d="M9.05479 10.9477H4.94792C4.68194 10.9477 4.45743 10.8562 4.27437 10.6733C4.09146 10.4903 4 10.2658 4 9.99978C4 9.73381 4.09146 9.50929 4.27437 9.32624C4.45743 9.14332 4.68194 9.05186 4.94792 9.05186H9.05479V4.94499C9.05479 4.67901 9.14625 4.4545 9.32917 4.27144C9.51222 4.08853 9.73674 3.99707 10.0027 3.99707C10.2687 3.99707 10.4932 4.08853 10.6762 4.27144C10.8592 4.4545 10.9506 4.67901 10.9506 4.94499V9.05186H15.0575C15.3235 9.05186 15.548 9.14332 15.731 9.32624C15.914 9.50929 16.0054 9.73381 16.0054 9.99978C16.0054 10.2658 15.914 10.4903 15.731 10.6733C15.548 10.8562 15.3235 10.9477 15.0575 10.9477H10.9506V15.0546C10.9506 15.3205 10.8592 15.5451 10.6762 15.7281C10.4932 15.911 10.2687 16.0025 10.0027 16.0025C9.73674 16.0025 9.51222 15.911 9.32917 15.7281C9.14625 15.5451 9.05479 15.3205 9.05479 15.0546V10.9477Z" fill="#D7E1EE"/>
</g>
</svg>
