<svg width="32" height="32" viewBox="0 0 32 32" fill="none" xmlns="http://www.w3.org/2000/svg">
<g clip-path="url(#clip0_7463_25941)">
<path d="M27.4121 29.4803L26.9809 27.7291C26.8129 27.0475 26.5921 26.3747 26.2433 25.7659C25.3921 24.2827 24.0489 23.1251 22.4265 22.5091L22.2193 22.4307C19.7385 26.6107 18.5137 30.0011 18.5137 30.0011H27.0049C27.2777 30.0011 27.4769 29.7451 27.4121 29.4803Z" fill="#333333"/>
<path d="M9.57404 22.5086C7.95164 23.1254 6.60764 24.283 5.75724 25.7654C5.40764 26.3734 5.18684 27.047 5.01964 27.7286L4.58844 29.4798C4.52364 29.7446 4.72364 30.0006 4.99644 30.0006H13.3932C13.3932 30.0006 12.174 26.6262 9.70524 22.459L9.57484 22.5086H9.57404Z" fill="#333333"/>
<path d="M26.0703 16.8657C26.4351 16.4161 26.1095 15.7441 25.5311 15.7441H6.37666C5.79826 15.7441 5.47266 16.4161 5.83746 16.8657C7.36146 18.7417 8.64626 20.6721 9.70546 22.4593C12.1751 26.6257 13.3935 30.0009 13.3935 30.0009H18.5143C18.5143 30.0009 19.7391 26.6105 22.2199 22.4305C23.2759 20.6513 24.5543 18.7321 26.0703 16.8657ZM12.0951 21.9225L14.2535 20.6673L16.0103 23.2137L13.8135 26.1105L12.0951 21.9225ZM16.0015 28.2065C15.5887 28.2065 15.2535 27.8721 15.2535 27.4585C15.2535 27.0449 15.5887 26.7105 16.0015 26.7105C16.4143 26.7105 16.7495 27.0449 16.7495 27.4585C16.7495 27.8721 16.4151 28.2065 16.0015 28.2065ZM18.2199 26.1113L16.0231 23.2145L17.7799 20.6681L19.9383 21.9233L18.2199 26.1113Z" fill="#D12030"/>
<path d="M16 26.7109C15.5872 26.7109 15.252 27.0453 15.252 27.4589C15.252 27.8725 15.5872 28.2069 16 28.2069C16.4128 28.2069 16.748 27.8725 16.748 27.4589C16.748 27.0453 16.4136 26.7109 16 26.7109Z" fill="#333333"/>
<path d="M17.7676 19.84V19.9288H20.3876C22.87 19.9288 24.7148 17.6312 24.1788 15.208L24.1476 15.1992C23.6964 15.476 23.2036 15.6496 22.6956 15.712C21.7836 17.752 19.9756 19.304 17.7676 19.84Z" fill="#333333"/>
<path d="M9.31287 15.7288C8.69607 15.7112 8.08487 15.54 7.54087 15.208H7.53847C7.00247 17.632 8.84727 19.9296 11.3297 19.9296H14.2569V19.8488C12.0409 19.3128 10.2249 17.7688 9.31287 15.7288Z" fill="#333333"/>
<path d="M10.6324 13.2406C13.2724 10.4966 13.5924 6.61657 13.5924 6.61657C13.5924 6.61657 19.2484 11.4406 23.1204 11.3686L24.2724 10.3206C24.1684 5.44057 19.9204 1.51257 14.9044 2.04857C13.4964 2.20057 12.1844 2.71257 11.0644 3.48057C9.05639 4.86457 7.67239 7.08857 7.43239 9.62457C7.41639 9.85657 7.42439 10.0726 7.41639 10.2966L7.40039 10.3126L9.16039 14.4726C9.72039 14.1046 10.2084 13.6886 10.6324 13.2406Z" fill="#333333"/>
<path d="M24.9278 9.73621L24.2718 10.3202L23.1198 11.3682C19.2478 11.4402 13.5918 6.61621 13.5918 6.61621C13.5918 6.61621 13.2718 10.4962 10.6318 13.2402C10.2078 13.6882 9.71979 14.1042 9.15979 14.4722L7.39979 10.3122L6.75979 9.73621C5.42379 11.2082 5.54379 13.4802 7.01579 14.8162C7.18059 14.965 7.35659 15.0954 7.53979 15.2074C8.08379 15.5402 8.69579 15.7106 9.31179 15.7282C10.2238 17.7682 12.0398 19.3122 14.2558 19.8482V21.4722C14.2558 22.4402 15.0398 23.2242 16.0078 23.2242C16.9758 23.2242 17.7678 22.4402 17.7678 21.4722V19.8402C19.9758 19.3042 21.7838 17.7522 22.6958 15.7122C23.203 15.6498 23.6966 15.4762 24.1478 15.1994C24.3294 15.0874 24.507 14.9634 24.6726 14.8162C26.1446 13.4802 26.2558 11.2082 24.9278 9.73621Z" fill="#FFCCA8"/>
<path d="M13.9421 13.3212C14.3729 13.3212 14.7221 12.9022 14.7221 12.3852C14.7221 11.8683 14.3729 11.4492 13.9421 11.4492C13.5113 11.4492 13.1621 11.8683 13.1621 12.3852C13.1621 12.9022 13.5113 13.3212 13.9421 13.3212Z" fill="black"/>
<path d="M18.0593 13.3212C18.4901 13.3212 18.8393 12.9022 18.8393 12.3852C18.8393 11.8683 18.4901 11.4492 18.0593 11.4492C17.6285 11.4492 17.2793 11.8683 17.2793 12.3852C17.2793 12.9022 17.6285 13.3212 18.0593 13.3212Z" fill="black"/>
<path d="M17.5244 15.9854H14.582V16.6622H17.5244V15.9854Z" fill="#5C2F17"/>
<path d="M13.8125 15.9854L14.5981 17.447L15.3509 15.9854H13.8125Z" fill="#5C2F17"/>
<path d="M16.5449 15.9854L17.3305 17.447L18.0833 15.9854H16.5449Z" fill="#5C2F17"/>
<path d="M14.2522 20.667L12.0938 21.9214L13.8121 26.1102L16.0089 23.2134L14.2522 20.667Z" fill="#F0F3F6"/>
<path d="M17.7791 20.667L16.0215 23.2134L18.2191 26.1102L19.9367 21.9214L17.7791 20.667Z" fill="#F0F3F6"/>
</g>
<defs>
<clipPath id="clip0_7463_25941">
<rect width="32" height="32" fill="white"/>
</clipPath>
</defs>
</svg>
