<svg width="18" height="18" viewBox="0 0 18 18" fill="none" xmlns="http://www.w3.org/2000/svg">
<g clip-path="url(#clip0_7463_27206)">
<path d="M65.6992 -2.7002H-91.8008V20.6998H65.6992V-2.7002Z" stroke="#F24253" stroke-width="0.9" stroke-miterlimit="10"/>
<path d="M6.44946 16.1792L1.68981 14.8143C1.48911 14.7567 1.34961 14.5614 1.34961 14.3387V3.84422C1.34961 3.52067 1.63536 3.28487 1.92651 3.36857L6.44946 4.66547V16.1792Z" fill="#D0D5DC"/>
<path d="M6.44922 16.1793L11.5495 14.7168V3.20312L6.44922 4.66562V16.1793Z" fill="#E1E4E7"/>
<path d="M16.0737 16.0137L11.5508 14.7168V3.20312L16.3104 4.56798C16.5111 4.62558 16.6506 4.82088 16.6506 5.04363V15.5376C16.6506 15.8612 16.3649 16.0974 16.0737 16.0137Z" fill="#D0D5DC"/>
<path d="M11.8839 8.76935C12.3173 8.31125 13.1021 7.48775 13.7973 6.7889C15.1226 5.4569 15.213 3.18395 13.8716 1.86815C13.2272 1.23635 12.3888 0.920449 11.5505 0.920899C10.7121 0.920899 9.87375 1.23635 9.2298 1.86815C7.8879 3.18395 7.97835 5.45735 9.30405 6.78935C9.9993 7.4882 10.785 8.3117 11.2193 8.76935C11.4002 8.96015 11.7035 8.96015 11.8839 8.76935Z" fill="#DC5257"/>
<path d="M11.5506 5.22025C12.0941 5.22025 12.5347 4.77963 12.5347 4.2361C12.5347 3.69257 12.0941 3.25195 11.5506 3.25195C11.007 3.25195 10.5664 3.69257 10.5664 4.2361C10.5664 4.77963 11.007 5.22025 11.5506 5.22025Z" fill="#FBFBFB"/>
</g>
<defs>
<clipPath id="clip0_7463_27206">
<rect width="18" height="18" fill="white"/>
</clipPath>
</defs>
</svg>
