<svg width="16" height="16" viewBox="0 0 16 16" fill="none" xmlns="http://www.w3.org/2000/svg">
<g clip-path="url(#clip0_1_9028)">
<path d="M6.49851 6.49402C6.44371 6.68122 6.30931 6.84362 6.11731 6.92802C5.77131 7.07962 5.36851 6.92202 5.21691 6.57682L3.64571 2.99362L1.62411 2.40082C1.26211 2.29482 1.05451 1.91482 1.16051 1.55282C1.26651 1.19082 1.64651 0.983218 2.00851 1.08922L4.33571 1.77162C4.52971 1.82842 4.68851 1.96802 4.76931 2.15282L6.46811 6.02762C6.53531 6.18082 6.54211 6.34562 6.49851 6.49402Z" fill="#65778E"/>
<path d="M5.35165 4.14864C5.29805 4.33144 5.16925 4.49024 4.98325 4.57664L3.28365 5.36544C2.94165 5.52424 2.53525 5.37544 2.37645 5.03304C2.21685 4.69024 2.36645 4.28464 2.70885 4.12584L4.40845 3.33704C4.75045 3.17824 5.15685 3.32704 5.31565 3.66944C5.38845 3.82584 5.39685 3.99544 5.35165 4.14864Z" fill="#65778E"/>
<path d="M2.10117 10.6435H3.81637C2.27037 10.4931 1.89397 9.2695 1.80637 8.5643C1.78437 8.3883 1.98237 8.2611 2.13037 8.3587C3.03797 8.9571 4.06797 8.5331 4.06797 8.5331C2.68917 8.5039 2.19957 7.4371 2.04277 6.9219C2.00117 6.7851 2.10637 6.6483 2.24957 6.6483H5.04477C5.18037 6.6483 5.28197 6.5243 5.25517 6.3915L5.03437 5.2871C5.00437 5.1367 5.13717 5.0043 5.28717 5.0343L6.71237 5.3211C6.85197 5.3491 6.97997 5.2359 6.96877 5.0939L6.89517 4.1511C6.88437 4.0147 7.00477 3.8983 7.13997 3.9195C9.37637 4.2687 10.044 6.1807 10.1896 6.7239C10.2128 6.8103 10.18 6.8995 10.1076 6.9523L8.82117 7.8843C8.77557 7.9171 8.74517 7.9643 8.73557 8.0195L7.26357 11.0091L13.7528 11.7723L10.0144 14.7211C9.90317 14.8087 9.73997 14.7295 9.73997 14.5883V13.1523L7.75077 14.7211C7.63957 14.8087 7.47637 14.7295 7.47637 14.5883V13.9047L4.43557 14.9375C4.29557 14.9331 4.19997 14.7971 4.23917 14.6627L4.53237 13.6563C4.57117 13.5223 4.47357 13.3927 4.33437 13.3823C2.24357 13.2295 1.92997 11.5047 1.88557 10.8735C1.87677 10.7487 1.97477 10.6439 2.09997 10.6439L2.10117 10.6435Z" fill="#176B73"/>
<path d="M12.6935 8.88672L12.0951 9.69792C12.0255 9.79232 11.8855 9.79432 11.8131 9.70232L11.1719 8.88672H12.6931H12.6935Z" fill="#FFB134"/>
<path d="M10.4141 10.3843L11.0125 9.5731C11.0821 9.4787 11.2221 9.4767 11.2945 9.5687L11.9357 10.3843H10.4141Z" fill="#FFB134"/>
<path d="M8.76661 6.64844H9.53021H14.8678V7.79964C14.8678 8.40044 14.381 8.88724 13.7802 8.88724H9.70861C9.29501 8.88724 8.95981 9.22244 8.95981 9.63604C8.95981 10.0496 9.29501 10.3848 9.70861 10.3848H14.1114C14.3934 10.3848 14.6274 10.6128 14.6282 10.8948C14.6302 11.3792 14.2378 11.7724 13.7538 11.7724H8.25341C6.83821 11.7724 5.69141 10.6252 5.69141 9.21044C5.69141 7.79524 6.83861 6.64844 8.25341 6.64844H8.76661Z" fill="#FFB134"/>
<path d="M8.22706 7.78419C8.91984 7.78419 9.48146 7.22258 9.48146 6.52979C9.48146 5.837 8.91984 5.27539 8.22706 5.27539C7.53427 5.27539 6.97266 5.837 6.97266 6.52979C6.97266 7.22258 7.53427 7.78419 8.22706 7.78419Z" fill="#FFB134"/>
<path d="M8.22876 7.22411C8.61182 7.22411 8.92236 6.91358 8.92236 6.53051C8.92236 6.14745 8.61182 5.83691 8.22876 5.83691C7.84569 5.83691 7.53516 6.14745 7.53516 6.53051C7.53516 6.91358 7.84569 7.22411 8.22876 7.22411Z" fill="#191F28"/>
<path d="M13.0703 6.6476C13.0703 6.152 13.4719 5.75 13.9679 5.75C14.4635 5.75 14.8655 6.1516 14.8655 6.6476H13.0703Z" fill="#EC6700"/>
</g>
<defs>
<clipPath id="clip0_1_9028">
<rect width="16" height="16" fill="white"/>
</clipPath>
</defs>
</svg>
