<svg width="14" height="14" viewBox="0 0 14 14" fill="none" xmlns="http://www.w3.org/2000/svg">
<g clip-path="url(#clip0_8933_42914)">
<path d="M13.0908 6.2006L2 8.8956V7.80535L13.0908 5.11035V6.2006Z" fill="#03905A"/>
<path d="M8.51887 2.18475L2.15795 8.54567C1.93912 8.7645 1.93912 9.11929 2.15795 9.33812L5.78611 12.9663C6.00494 13.1851 6.35974 13.1851 6.57857 12.9663L12.9395 6.60537C13.1583 6.38654 13.1583 6.03174 12.9395 5.81291L9.31132 2.18475C9.09249 1.96592 8.7377 1.96592 8.51887 2.18475Z" fill="#03905A"/>
<path d="M8.51887 1.03143L2.15795 7.39235C1.93912 7.61118 1.93912 7.96597 2.15795 8.1848L5.78611 11.813C6.00494 12.0318 6.35974 12.0318 6.57857 11.813L12.9395 5.45205C13.1583 5.23322 13.1583 4.87842 12.9395 4.65959L9.31132 1.03143C9.09249 0.812597 8.7377 0.812597 8.51887 1.03143Z" fill="#4FC578"/>
<path d="M6.06441 3.48247L4.60547 4.94141L9.02609 9.36203L10.485 7.90309L6.06441 3.48247Z" fill="#7BD58F"/>
<path d="M12.7602 9.37305V12.9672C12.7602 13.0466 12.6958 13.1107 12.6167 13.1107C12.0735 13.1107 11.6328 12.6704 11.6328 12.1268V9.37305H12.7602Z" fill="#E5E8EB"/>
<path d="M9.91907 9.37305V11.9424C9.91907 12.019 9.85677 12.0813 9.78012 12.0813C9.25442 12.0813 8.82812 11.655 8.82812 11.1293V9.37305H9.91907Z" fill="#E5E8EB"/>
<path d="M12.7604 9.37255V10.7267H8.82812V9.37255C8.82812 8.2865 9.70837 7.40625 10.7944 7.40625C11.8805 7.40625 12.7604 8.2865 12.7604 9.37255Z" fill="#E5E8EB"/>
<path d="M10.7943 9.06431C11.1058 9.06431 11.3585 9.31701 11.3585 9.62851V12.6879C11.3585 12.7673 11.2941 12.8314 11.215 12.8314C10.6715 12.8314 10.2305 12.3907 10.2305 11.8468V9.62816C10.2305 9.31666 10.4832 9.06396 10.7947 9.06396L10.7943 9.06431Z" fill="#E5E8EB"/>
<path d="M4.63218 1.24414H1.03803C0.958581 1.24414 0.894531 1.30854 0.894531 1.38764C0.894531 1.93084 1.33483 2.37149 1.87838 2.37149H4.63218V1.24414Z" fill="#E5E8EB"/>
<path d="M4.63408 4.08496H2.06473C1.98808 4.08496 1.92578 4.14726 1.92578 4.22391C1.92578 4.74961 2.35208 5.17591 2.87778 5.17591H4.63408V4.08496Z" fill="#E5E8EB"/>
<path d="M4.63149 1.24449H3.27734V5.17674H4.63149C5.71754 5.17674 6.59779 4.29649 6.59779 3.21044C6.59779 2.12439 5.71754 1.24449 4.63149 1.24449Z" fill="#E5E8EB"/>
<path d="M4.93893 3.20971C4.93893 2.89821 4.68623 2.64551 4.37473 2.64551H1.31538C1.23593 2.64551 1.17188 2.70991 1.17188 2.78901C1.17188 3.33256 1.61253 3.77356 2.15643 3.77356H4.37508C4.68657 3.77356 4.93928 3.52086 4.93928 3.20936L4.93893 3.20971Z" fill="#E5E8EB"/>
</g>
<defs>
<clipPath id="clip0_8933_42914">
<rect width="14" height="14" fill="white"/>
</clipPath>
</defs>
</svg>
