<svg width="32" height="32" viewBox="0 0 32 32" fill="none" xmlns="http://www.w3.org/2000/svg">
<g clip-path="url(#clip0_7463_25924)">
<path d="M7.70912 14.9891L7.41152 19.2747C7.41152 19.2747 3.24592 21.1531 6.05552 25.1451H16.3219V15.2235L7.70912 14.9891Z" fill="#333333"/>
<path d="M24.2905 14.9891L24.5881 19.2747C24.5881 19.2747 28.7537 21.1531 25.9441 25.1451H15.6777V15.2235L24.2905 14.9891Z" fill="#333333"/>
<path d="M22.4268 22.5098L19.0556 21.229C17.0876 20.481 14.9132 20.481 12.9452 21.229L9.57404 22.5098C7.95164 23.1266 6.60764 24.2842 5.75724 25.7666C5.40764 26.3746 5.18684 27.0482 5.01964 27.7298L4.58844 29.481C4.52364 29.7458 4.72364 30.0018 4.99644 30.0018H27.0052C27.278 30.0018 27.478 29.7458 27.4132 29.481L26.982 27.7298C26.814 27.049 26.5932 26.3754 26.2444 25.7666C25.3932 24.2842 24.0492 23.1258 22.4268 22.5098Z" fill="#3E26B1"/>
<path d="M24.265 10.6396C24.0722 10.606 23.8626 10.8556 23.6138 10.9956C23.517 11.0372 23.4178 11.0668 23.333 11.0724C19.4602 11.3292 13.5922 6.61719 13.5922 6.61719L8.95615 11.8044C8.39295 10.5364 7.64015 10.7556 7.44575 10.8388C6.79775 11.3436 6.37695 12.0948 6.37695 12.9444C6.37695 14.4564 7.68895 15.6884 9.29695 15.6964C10.433 18.2724 13.009 20.0644 16.001 20.0644C18.993 20.0644 21.569 18.2724 22.705 15.6964C24.313 15.6884 25.625 14.4564 25.625 12.9444C25.625 11.974 25.0786 11.1292 24.2658 10.6396H24.265Z" fill="#FFCCA8"/>
<path d="M8.95621 11.8041L13.5922 6.61691C13.5922 6.61691 19.4602 11.3297 23.333 11.0721C23.4186 11.0665 23.517 11.0369 23.6138 10.9953C23.8626 10.8553 24.073 10.6057 24.265 10.6393C24.2722 10.6409 24.2794 10.6361 24.2866 10.6377C24.361 5.60651 20.0322 1.49851 14.9066 2.04971C10.9642 2.47291 7.80741 5.67691 7.43541 9.62491C7.39781 10.0265 7.38021 10.4721 7.39701 10.8617C7.39701 10.8617 7.41541 10.8521 7.44581 10.8385C7.64021 10.7553 8.39301 10.5361 8.95621 11.8041Z" fill="#333333"/>
<path d="M16.9701 16.0742C17.1453 16.0742 17.2701 16.2422 17.2237 16.4118C17.0757 16.9486 16.5845 17.343 16.0005 17.343C15.4165 17.343 14.9253 16.9486 14.7773 16.4118C14.7309 16.243 14.8557 16.0742 15.0309 16.0742H16.9709H16.9701Z" fill="#5C2F17"/>
<path d="M18.2478 24.0362H13.7734L14.2534 20.8474V18.9434H17.7678V20.8514L18.2478 24.0362Z" fill="#FFCCA8"/>
<path d="M18.2283 24.0361H16.0003H13.7723L9.53711 30.0001H16.0003H22.4635L18.2283 24.0361Z" fill="#786DE7"/>
<path d="M16.3134 11.1025C16.1246 11.2433 15.8758 11.2433 15.687 11.1025C12.6622 8.85048 8.375 10.9713 8.375 10.9713C8.375 10.9713 10.6718 14.6657 13.0142 14.8649C14.4526 14.9873 15.2502 14.3017 15.6518 13.7537C15.823 13.5201 16.1774 13.5201 16.3486 13.7537C16.7502 14.3009 17.5478 14.9865 18.9862 14.8649C21.3286 14.6657 23.6254 10.9713 23.6254 10.9713C23.6254 10.9713 19.3374 8.85048 16.3134 11.1025ZM13.3862 13.8169C12.3942 13.8169 11.5894 13.2153 11.5894 12.4729C11.5894 11.7305 12.3942 11.1289 13.3862 11.1289C14.3782 11.1289 15.183 11.7305 15.183 12.4729C15.183 13.2153 14.3782 13.8169 13.3862 13.8169ZM18.4062 13.8169C17.4142 13.8169 16.6094 13.2153 16.6094 12.4729C16.6094 11.7305 17.4142 11.1289 18.4062 11.1289C19.3982 11.1289 20.203 11.7305 20.203 12.4729C20.203 13.2153 19.3982 13.8169 18.4062 13.8169Z" fill="#EF3452"/>
<path d="M13.8425 13.4091C14.2733 13.4091 14.6225 12.99 14.6225 12.4731C14.6225 11.9562 14.2733 11.5371 13.8425 11.5371C13.4117 11.5371 13.0625 11.9562 13.0625 12.4731C13.0625 12.99 13.4117 13.4091 13.8425 13.4091Z" fill="black"/>
<path d="M18.1413 13.4091C18.5721 13.4091 18.9213 12.99 18.9213 12.4731C18.9213 11.9562 18.5721 11.5371 18.1413 11.5371C17.7105 11.5371 17.3613 11.9562 17.3613 12.4731C17.3613 12.99 17.7105 13.4091 18.1413 13.4091Z" fill="black"/>
</g>
<defs>
<clipPath id="clip0_7463_25924">
<rect width="32" height="32" fill="white"/>
</clipPath>
</defs>
</svg>
