<svg width="32" height="32" viewBox="0 0 32 32" fill="none" xmlns="http://www.w3.org/2000/svg">
<g clip-path="url(#clip0_7462_34278)">
<path d="M22.4249 22.5088L19.0537 21.228C17.0857 20.48 14.9113 20.48 12.9433 21.228L9.57209 22.5088C7.94969 23.1256 6.60569 24.2832 5.75529 25.7656C5.40569 26.3736 5.18489 27.0472 5.01769 27.7288L4.58649 29.48C4.52169 29.7448 4.72169 30.0008 4.99449 30.0008H27.0033C27.2761 30.0008 27.4761 29.7448 27.4113 29.48L26.9801 27.7288C26.8121 27.048 26.5913 26.3744 26.2425 25.7656C25.3913 24.2832 24.0473 23.1248 22.4249 22.5088Z" fill="#E3E3E3"/>
<path d="M17.7644 18.3955H14.25V21.8883H17.7644V18.3955Z" fill="#FFCCA8"/>
<path d="M15.998 21.7665L13.5876 20.6945C13.3612 20.6137 13.1364 20.8209 13.1668 21.0809L13.43 23.3209C13.4604 23.5769 13.7188 23.7153 13.9188 23.5809L15.998 22.4049L18.0772 23.5809C18.2772 23.7145 18.5364 23.5769 18.566 23.3209L18.8292 21.0809C18.8596 20.8201 18.6348 20.6137 18.4084 20.6945L15.998 21.7665Z" fill="#333333"/>
<path d="M14.1161 30.0002H4.99449C4.72169 30.0002 4.52169 29.7442 4.58649 29.4794L5.01769 27.7282C5.18569 27.0474 5.40649 26.3738 5.75529 25.765C6.60649 24.2818 7.94969 23.1242 9.57289 22.5082L12.0945 21.5498L14.1161 30.0002Z" fill="#333333"/>
<path d="M17.8828 30.0002H27.0044C27.2772 30.0002 27.4772 29.7442 27.4124 29.4794L26.9812 27.7282C26.8132 27.0474 26.5924 26.3738 26.2436 25.765C25.3924 24.2818 24.0492 23.1242 22.426 22.5082L19.9044 21.5498L17.8828 30.0002Z" fill="#333333"/>
<path d="M16.0078 25.0293C16.284 25.0293 16.5078 24.8054 16.5078 24.5293C16.5078 24.2532 16.284 24.0293 16.0078 24.0293C15.7317 24.0293 15.5078 24.2532 15.5078 24.5293C15.5078 24.8054 15.7317 25.0293 16.0078 25.0293Z" fill="#BDBDBD"/>
<path d="M16.0078 27.2871C16.284 27.2871 16.5078 27.0633 16.5078 26.7871C16.5078 26.511 16.284 26.2871 16.0078 26.2871C15.7317 26.2871 15.5078 26.511 15.5078 26.7871C15.5078 27.0633 15.7317 27.2871 16.0078 27.2871Z" fill="#BDBDBD"/>
<path d="M15.9999 20.0671C20.047 20.0671 23.3279 16.7863 23.3279 12.7391C23.3279 8.69199 20.047 5.41113 15.9999 5.41113C11.9527 5.41113 8.67188 8.69199 8.67188 12.7391C8.67188 16.7863 11.9527 20.0671 15.9999 20.0671Z" fill="#FFCCA8"/>
<path d="M9.31055 15.6958C10.9307 15.6958 12.2442 14.464 12.2442 12.9446C12.2442 11.4251 10.9307 10.1934 9.31055 10.1934C7.69037 10.1934 6.37695 11.4251 6.37695 12.9446C6.37695 14.464 7.69037 15.6958 9.31055 15.6958Z" fill="#FFCCA8"/>
<path d="M22.6856 15.6958C24.3057 15.6958 25.6192 14.464 25.6192 12.9446C25.6192 11.4251 24.3057 10.1934 22.6856 10.1934C21.0654 10.1934 19.752 11.4251 19.752 12.9446C19.752 14.464 21.0654 15.6958 22.6856 15.6958Z" fill="#FFCCA8"/>
<path d="M24.2863 10.6381C24.3639 5.38373 19.6391 1.13572 14.2183 2.15092C10.8335 2.78452 8.12395 5.52453 7.53035 8.91652C7.42315 9.52772 7.38235 10.1301 7.40075 10.7173C7.40235 10.7645 7.43915 10.8053 7.48635 10.8053C7.67355 10.8069 8.15275 10.9029 8.61995 11.7517C8.69035 11.8789 8.86155 11.9077 8.95915 11.7997L13.5911 6.61652C13.5911 6.61652 19.4591 11.3293 23.3319 11.0717C23.4175 11.0661 23.5159 11.0365 23.6127 10.9949C23.8711 10.8493 24.0879 10.5797 24.2863 10.6373V10.6381Z" fill="#333333"/>
<path d="M13.9402 13.3193C14.3709 13.3193 14.7202 12.9002 14.7202 12.3833C14.7202 11.8663 14.3709 11.4473 13.9402 11.4473C13.5094 11.4473 13.1602 11.8663 13.1602 12.3833C13.1602 12.9002 13.5094 13.3193 13.9402 13.3193Z" fill="black"/>
<path d="M18.0573 13.3193C18.4881 13.3193 18.8373 12.9002 18.8373 12.3833C18.8373 11.8663 18.4881 11.4473 18.0573 11.4473C17.6266 11.4473 17.2773 11.8663 17.2773 12.3833C17.2773 12.9002 17.6266 13.3193 18.0573 13.3193Z" fill="black"/>
<path d="M16.9682 16.0732C17.1434 16.0732 17.2682 16.2412 17.2218 16.4108C17.0738 16.9476 16.5826 17.342 15.9986 17.342C15.4146 17.342 14.9234 16.9476 14.7754 16.4108C14.729 16.242 14.8538 16.0732 15.029 16.0732H16.969H16.9682Z" fill="#5C2F17"/>
</g>
<defs>
<clipPath id="clip0_7462_34278">
<rect width="32" height="32" fill="white"/>
</clipPath>
</defs>
</svg>
