<svg width="18" height="18" viewBox="0 0 18 18" fill="none" xmlns="http://www.w3.org/2000/svg">
<g clip-path="url(#clip0_7463_27188)">
<path d="M8.99844 16.1609C12.54 16.1609 15.4109 13.29 15.4109 9.74844C15.4109 6.20691 12.54 3.33594 8.99844 3.33594C5.45691 3.33594 2.58594 6.20691 2.58594 9.74844C2.58594 13.29 5.45691 16.1609 8.99844 16.1609Z" fill="#E5E8EB"/>
<path d="M8.99853 16.8545C5.08038 16.8545 1.89258 13.6671 1.89258 9.74853C1.89258 5.82993 5.07993 2.64258 8.99853 2.64258C12.9171 2.64258 16.1045 5.82993 16.1045 9.74853C16.1045 13.6671 12.9171 16.8545 8.99853 16.8545ZM8.99853 4.02948C5.84493 4.02948 3.27948 6.59538 3.27948 9.74853C3.27948 12.9017 5.84538 15.4676 8.99853 15.4676C12.1517 15.4676 14.7176 12.9017 14.7176 9.74853C14.7176 6.59538 12.1517 4.02948 8.99853 4.02948Z" fill="#EF4452"/>
<path d="M15.1889 4.70372C15.5863 4.98182 16.1546 4.78877 16.277 4.31942C16.5538 3.25922 16.1636 2.09192 15.2132 1.42682C14.2628 0.761268 13.033 0.793668 12.1312 1.41647C11.732 1.69232 11.7446 2.29217 12.1424 2.57072L15.1889 4.70372Z" fill="#EF4452"/>
<path d="M2.80802 4.70372C2.41067 4.98182 1.84232 4.78877 1.71992 4.31942C1.44317 3.25922 1.83332 2.09192 2.78372 1.42682C3.73412 0.761268 4.96397 0.793668 5.86577 1.41647C6.26492 1.69232 6.25232 2.29217 5.85452 2.57072L2.80802 4.70372Z" fill="#EF4452"/>
<path d="M8.99961 10.4416H6.35361C5.97066 10.4416 5.66016 10.1311 5.66016 9.74814C5.66016 9.36519 5.97066 9.05469 6.35361 9.05469H8.99961C9.38256 9.05469 9.69306 9.36519 9.69306 9.74814C9.69306 10.1311 9.38256 10.4416 8.99961 10.4416Z" fill="#EF4452"/>
<path d="M8.99814 10.4416C8.61519 10.4416 8.30469 10.1311 8.30469 9.74818V5.95468C8.30469 5.57173 8.61519 5.26123 8.99814 5.26123C9.38109 5.26123 9.69159 5.57173 9.69159 5.95468V9.74818C9.69159 10.1311 9.38109 10.4416 8.99814 10.4416Z" fill="#313D4C"/>
</g>
<defs>
<clipPath id="clip0_7463_27188">
<rect width="18" height="18" fill="white"/>
</clipPath>
</defs>
</svg>
