<svg width="24" height="24" viewBox="0 0 24 24" fill="none" xmlns="http://www.w3.org/2000/svg">
<g clip-path="url(#clip0_8933_42855)">
<path d="M11.9233 13.5068H21.2809C21.1039 11.2376 20.0023 9.07343 18.1195 7.59263L16.2991 6.16103L18.0745 3.19343C18.3475 2.73743 18.0187 2.15723 17.4871 2.15723H6.39194C5.86034 2.15723 5.53154 2.73683 5.80454 3.19343L7.57994 6.16103L5.87954 7.49783C3.96854 9.00083 2.86454 11.2052 2.71094 13.5062L11.9233 13.5068Z" fill="#D03D40"/>
<path d="M3.47549 17.5904L3.62849 17.918C4.36829 19.5014 5.6697 20.7074 7.2303 21.3434V13.5068H2.70989C2.61869 14.876 2.86349 16.28 3.47549 17.5904Z" fill="#F6C864"/>
<path d="M7.23047 13.5068V21.3434C8.03267 21.6704 8.90267 21.8474 9.80087 21.8474H11.9225V13.5074L7.23047 13.5068Z" fill="#313D4F"/>
<path d="M11.9219 13.5068V21.8468H14.2475C15.0707 21.8468 15.8699 21.698 16.6139 21.422V13.5068H11.9219Z" fill="#F1A79D"/>
<path d="M16.6133 21.422C18.3125 20.792 19.7261 19.4966 20.4821 17.777L20.5985 17.5124C21.1667 16.2194 21.3833 14.8448 21.2789 13.5068H16.6133V21.422Z" fill="#4CA1A2"/>
<path d="M16.6024 6.44175H7.27239C7.11759 6.44175 6.99219 6.31635 6.99219 6.16155C6.99219 6.00675 7.11759 5.88135 7.27239 5.88135H16.6024C16.7572 5.88135 16.8826 6.00675 16.8826 6.16155C16.8826 6.31635 16.7572 6.44175 16.6024 6.44175Z" fill="#FCED78"/>
<path d="M8.6702 10.4677C8.318 10.4677 8.0282 10.3555 7.8272 10.1347C7.5188 9.7969 7.4828 9.2755 7.7252 8.6659C7.9358 8.1355 8.342 7.5799 8.8676 7.0999C9.3938 6.6199 9.9854 6.2671 10.5326 6.1069C11.1596 5.9197 11.6762 6.0055 11.9852 6.3433C12.5774 6.9931 12.1304 8.2981 10.9448 9.3781C10.4186 9.8581 9.827 10.2109 9.2798 10.3711C9.0614 10.4353 8.8568 10.4671 8.6696 10.4671L8.6702 10.4677ZM11.141 6.6769C11.0198 6.6769 10.877 6.6997 10.7204 6.7459C10.2746 6.8767 9.7628 7.1857 9.317 7.5925C8.8706 7.9993 8.5154 8.4805 8.3438 8.9125C8.2046 9.2617 8.1962 9.5503 8.3192 9.6859C8.4428 9.8227 8.732 9.8407 9.092 9.7333C9.5378 9.6025 10.0496 9.2935 10.4954 8.8867C11.4788 7.9909 11.7392 7.0633 11.4926 6.7933C11.423 6.7165 11.2994 6.6775 11.1404 6.6775L11.141 6.6769Z" fill="#FCED78"/>
<path d="M15.3889 10.4681C15.2017 10.4681 14.9971 10.4363 14.7787 10.3721C14.2315 10.2119 13.6399 9.85908 13.1137 9.37908C12.5881 8.89908 12.1819 8.34348 11.9713 7.81308C11.7289 7.20408 11.7649 6.68208 12.0733 6.34428C12.3817 6.00648 12.8965 5.92068 13.5259 6.10788C14.0731 6.26808 14.6647 6.62088 15.1909 7.10088C16.3759 8.18088 16.8235 9.48588 16.2313 10.1357C16.0303 10.3559 15.7405 10.4687 15.3883 10.4687L15.3889 10.4681ZM12.9181 6.67728C12.7591 6.67728 12.6355 6.71628 12.5659 6.79308C12.4423 6.92868 12.4513 7.21728 12.5905 7.56648C12.7621 7.99848 13.1167 8.47968 13.5637 8.88648C14.0095 9.29328 14.5213 9.60228 14.9671 9.73308C15.3295 9.83808 15.6175 9.82128 15.7399 9.68568C15.9859 9.41568 15.7261 8.48868 14.7427 7.59228C14.2969 7.18548 13.7851 6.87648 13.3393 6.74568C13.1827 6.70008 13.0399 6.67668 12.9187 6.67668L12.9181 6.67728Z" fill="#FCED78"/>
</g>
<defs>
<clipPath id="clip0_8933_42855">
<rect width="24" height="24" fill="white"/>
</clipPath>
</defs>
</svg>
