<svg width="16" height="16" viewBox="0 0 16 16" fill="none" xmlns="http://www.w3.org/2000/svg">
<g clip-path="url(#clip0_1_8928)">
<path d="M9.48422 3.28369C9.03222 3.21569 8.52822 3.17969 8.00022 3.17969C7.47222 3.17969 6.96822 3.21569 6.51622 3.28369C5.27222 3.46369 4.38422 3.86369 4.28022 4.33569H4.26422L4.24022 4.56769H0.824219C0.824219 5.63569 1.68822 6.49969 2.75622 6.49969C3.27622 6.49969 3.74422 6.29169 4.09222 5.95969L3.49222 11.5277C3.76022 10.3477 4.80822 9.46769 6.06822 9.46769H8.38822C8.49222 7.55569 8.89222 6.34369 9.38422 5.58369C10.3202 4.12769 11.5802 4.30769 11.7202 4.33569C11.6162 3.86369 10.7282 3.46369 9.48422 3.28369ZM6.08422 8.03969C5.72822 8.03969 5.44022 7.75169 5.44022 7.39969C5.44022 7.04369 5.72822 6.75569 6.08422 6.75569C6.44022 6.75569 6.72822 7.04369 6.72822 7.39969C6.72822 7.75169 6.44022 8.03969 6.08422 8.03969Z" fill="#E7E7E7"/>
<path d="M6.51442 3.28335L4.90203 1.33135C4.68763 1.07175 4.26562 1.22335 4.26562 1.56015V4.33735C4.26562 4.33735 4.27083 4.33615 4.27923 4.33495C4.38203 3.86255 5.27122 3.46335 6.51442 3.28335Z" fill="#B7B7B7"/>
<path d="M11.7196 4.33513C11.728 4.33673 11.7332 4.33753 11.7332 4.33753V1.56033C11.7332 1.22353 11.3112 1.07153 11.0968 1.33153L9.48438 3.28353C10.7276 3.46353 11.6168 3.86273 11.7196 4.33513Z" fill="#B7B7B7"/>
<path d="M11.7578 4.56738L11.9074 5.96058C12.2546 6.29338 12.7234 6.50018 13.2418 6.50018C14.3094 6.50018 15.1746 5.63498 15.1746 4.56738H11.7578Z" fill="#B7B7B7"/>
<path d="M11.7339 4.33716C11.7339 4.33716 11.7287 4.33596 11.7203 4.33476C11.5807 4.30956 10.3195 4.12876 9.38192 5.58276C8.89152 6.34316 8.49192 7.55436 8.38672 9.46676H9.90992C11.2599 9.46676 12.3715 10.4804 12.5299 11.7876H12.5339L11.9083 5.96076L11.7587 4.56756L11.7339 4.33716ZM9.90192 8.04076C9.54672 8.04076 9.25912 7.75276 9.25912 7.39796C9.25912 7.04316 9.54712 6.75516 9.90192 6.75516C10.2567 6.75516 10.5447 7.04276 10.5447 7.39796C10.5447 7.75316 10.2567 8.04076 9.90192 8.04076Z" fill="#B7B7B7"/>
<path d="M9.90061 8.04048C10.2556 8.04048 10.5434 7.75269 10.5434 7.39768C10.5434 7.04267 10.2556 6.75488 9.90061 6.75488C9.5456 6.75488 9.25781 7.04267 9.25781 7.39768C9.25781 7.75269 9.5456 8.04048 9.90061 8.04048Z" fill="#1B2321"/>
<path d="M6.08421 8.04048C6.43922 8.04048 6.72701 7.75269 6.72701 7.39768C6.72701 7.04267 6.43922 6.75488 6.08421 6.75488C5.7292 6.75488 5.44141 7.04267 5.44141 7.39768C5.44141 7.75269 5.7292 8.04048 6.08421 8.04048Z" fill="#1B2321"/>
<path d="M9.90858 9.4668H6.06738C4.80818 9.4668 3.75658 10.3488 3.49178 11.5284C3.44978 11.7152 3.42578 11.9088 3.42578 12.1084C3.42578 13.5672 4.60818 14.7496 6.06698 14.7496H9.90818C11.367 14.7496 12.5494 13.5672 12.5494 12.1084C12.5494 11.9996 12.541 11.8932 12.5282 11.7876C12.3698 10.4804 11.2586 9.4668 9.90858 9.4668ZM9.48098 10.7088C9.79458 10.7088 10.0486 10.98 10.0486 11.3144C10.0486 11.6488 9.79458 11.92 9.48098 11.92C9.16738 11.92 8.91338 11.6488 8.91338 11.3144C8.91338 10.98 9.16738 10.7088 9.48098 10.7088ZM6.51898 10.7088C6.83258 10.7088 7.08658 10.98 7.08658 11.3144C7.08658 11.6488 6.83258 11.92 6.51898 11.92C6.20538 11.92 5.95138 11.6488 5.95138 11.3144C5.95138 10.98 6.20538 10.7088 6.51898 10.7088Z" fill="#FFBFC2"/>
<path d="M6.52073 11.9202C6.83433 11.9202 7.08832 11.649 7.08832 11.3146C7.08832 10.9802 6.83433 10.709 6.52073 10.709C6.20713 10.709 5.95312 10.9802 5.95312 11.3146C5.95312 11.649 6.20713 11.9202 6.52073 11.9202Z" fill="#E77F77"/>
<path d="M9.48166 11.9202C9.79514 11.9202 10.0493 11.649 10.0493 11.3146C10.0493 10.9801 9.79514 10.709 9.48166 10.709C9.16819 10.709 8.91406 10.9801 8.91406 11.3146C8.91406 11.649 9.16819 11.9202 9.48166 11.9202Z" fill="#E77F77"/>
</g>
<defs>
<clipPath id="clip0_1_8928">
<rect width="16" height="16" fill="white"/>
</clipPath>
</defs>
</svg>
