<svg width="32" height="32" viewBox="0 0 32 32" fill="none" xmlns="http://www.w3.org/2000/svg">
<g clip-path="url(#clip0_7462_34260)">
<path d="M23.7171 15.167H8.25391V27.7886H23.7171V15.167Z" fill="#FFE3A0"/>
<path d="M27.4099 29.4795L26.9787 27.7283C26.8107 27.0467 26.5899 26.3739 26.2411 25.7651C25.8043 25.0043 25.2371 24.3315 24.5699 23.7715L22.5195 29.9995H27.0019C27.2747 29.9995 27.4747 29.7443 27.4099 29.4795Z" fill="#FFCCA8"/>
<path d="M5.75529 25.7662C5.40569 26.3742 5.18489 27.0478 5.01769 27.7294L4.58649 29.4806C4.52169 29.7454 4.72169 30.0014 4.99449 30.0014H9.43449L7.39289 23.7998C6.74009 24.355 6.18489 25.019 5.75609 25.767L5.75529 25.7662Z" fill="#FFCCA8"/>
<path d="M24.9216 22.7104L17.7656 20.4704V21.4704C17.7656 22.4408 16.9792 23.2272 16.0088 23.2272C15.0384 23.2272 14.252 22.4408 14.252 21.4704V20.4512L7.03516 22.7104L7.39356 23.7976L9.43516 29.9992H22.5216L24.572 23.7712L24.9216 22.7096V22.7104Z" fill="#37605F"/>
<path d="M24.6718 14.8163C24.0958 15.3283 23.4078 15.6242 22.6958 15.7122C21.7838 17.7522 19.9758 19.2962 17.7678 19.8403V21.4723C17.7678 22.4403 16.9758 23.2243 16.0078 23.2243C15.0398 23.2243 14.2558 22.4403 14.2558 21.4723V19.8483C12.0398 19.3042 10.2238 17.7683 9.31179 15.7283C8.48779 15.7043 7.67179 15.4083 7.01579 14.8163C5.54379 13.4803 5.42379 11.2083 6.75979 9.73625L7.41579 10.3283L7.42379 10.3363C7.55179 13.2163 9.16779 15.3363 9.16779 15.3363C9.16779 14.2003 9.44779 13.2723 9.83979 12.5203C10.4078 11.4162 11.2318 10.6963 11.8478 10.2803L12.6718 9.81625L14.7198 8.65625C14.7198 8.65625 15.1198 8.90425 15.7838 9.25625C16.4478 9.60025 17.3678 10.0483 18.4158 10.4483C18.4158 10.4483 20.3278 11.2563 21.5998 12.7443C22.2398 13.4803 22.7198 14.3923 22.7198 15.4563C22.7198 15.4563 23.9998 13.5123 24.2558 10.3443L24.2718 10.3202L24.9278 9.73625C26.2558 11.2083 26.1438 13.4803 24.6718 14.8163Z" fill="#FFCCA8"/>
<path d="M13.9402 13.3193C14.3709 13.3193 14.7202 12.9002 14.7202 12.3833C14.7202 11.8663 14.3709 11.4473 13.9402 11.4473C13.5094 11.4473 13.1602 11.8663 13.1602 12.3833C13.1602 12.9002 13.5094 13.3193 13.9402 13.3193Z" fill="black"/>
<path d="M18.0573 13.3193C18.4881 13.3193 18.8373 12.9002 18.8373 12.3833C18.8373 11.8663 18.4881 11.4473 18.0573 11.4473C17.6266 11.4473 17.2773 11.8663 17.2773 12.3833C17.2773 12.9002 17.6266 13.3193 18.0573 13.3193Z" fill="black"/>
<path d="M16.9799 15.7451C17.1551 15.7451 17.2799 15.9131 17.2335 16.0827C17.0855 16.6195 16.5943 17.0139 16.0103 17.0139C15.4263 17.0139 14.9351 16.6195 14.7871 16.0827C14.7407 15.9139 14.8655 15.7451 15.0407 15.7451H16.9799Z" fill="#5C2F17"/>
<path d="M24.2882 9.81559C24.2802 9.92759 24.2722 10.0316 24.2642 10.1356C24.2642 10.2076 24.2562 10.2716 24.2562 10.3436C24.0002 13.5116 22.7202 15.4556 22.7202 15.4556C22.7202 14.3916 22.2402 13.4796 21.6002 12.7436C20.3282 11.2556 18.4162 10.4476 18.4162 10.4476C16.3202 9.65559 14.7202 8.65559 14.7202 8.65559L12.6722 9.81559C12.6722 9.81559 12.3202 9.95959 11.8482 10.2796C11.2322 10.6956 10.4082 11.4156 9.8402 12.5196C9.4482 13.2716 9.1682 14.1996 9.1682 15.3356C9.1682 15.3356 7.5522 13.2156 7.4242 10.3356C7.4242 10.3036 7.4242 10.2716 7.4162 10.2396C7.4162 10.1436 7.4082 10.0556 7.4082 9.95959H7.4242C7.4322 9.84759 7.4242 9.73559 7.4322 9.62359C7.6722 7.08759 9.0562 4.8636 11.0642 3.47959C12.1842 2.7116 13.4962 2.1996 14.9042 2.0476C19.7522 1.5276 23.8802 5.1676 24.2562 9.81559H24.2882Z" fill="#FFE3A0"/>
<path d="M15.8402 7.56836H7.94741C7.52981 7.56836 7.19141 7.90676 7.19141 8.32436V9.12276C7.19141 9.40916 7.42741 9.63716 7.71301 9.62436C9.33461 9.54996 14.3506 9.46116 15.9194 11.006C17.4882 9.46116 22.345 9.54996 23.9666 9.62436C24.253 9.63716 24.4882 9.40916 24.4882 9.12276V8.32436C24.4882 7.90676 24.1498 7.56836 23.7322 7.56836H15.8386H15.8402Z" fill="#A2C2C3"/>
<path d="M15.9368 9.688C16.3247 9.688 16.6392 9.37353 16.6392 8.9856C16.6392 8.59768 16.3247 8.2832 15.9368 8.2832C15.5489 8.2832 15.2344 8.59768 15.2344 8.9856C15.2344 9.37353 15.5489 9.688 15.9368 9.688Z" fill="#CCDFE3"/>
<path d="M17.0849 26.7196L16.2007 25.8355C16.0942 25.7289 15.9214 25.7289 15.8149 25.8355L14.9307 26.7196C14.8242 26.8262 14.8242 26.9989 14.9307 27.1054L15.8149 27.9896C15.9214 28.0961 16.0942 28.0961 16.2007 27.9896L17.0849 27.1054C17.1914 26.9989 17.1914 26.8262 17.0849 26.7196Z" fill="#CCDFE3"/>
</g>
<defs>
<clipPath id="clip0_7462_34260">
<rect width="32" height="32" fill="white"/>
</clipPath>
</defs>
</svg>
