<svg width="16" height="16" viewBox="0 0 16 16" fill="none" xmlns="http://www.w3.org/2000/svg">
<path d="M9.33301 2.00016C9.33301 1.63197 9.63148 1.3335 9.99967 1.3335H13.9997C14.3679 1.3335 14.6663 1.63197 14.6663 2.00016L14.6663 6.00016C14.6663 6.36835 14.3679 6.66683 13.9997 6.66683C13.6315 6.66683 13.333 6.36835 13.333 6.00016L13.333 3.60964L9.13774 7.8049C8.8774 8.06525 8.45529 8.06525 8.19494 7.8049C7.93459 7.54455 7.93459 7.12244 8.19494 6.86209L12.3902 2.66683H9.99967C9.63148 2.66683 9.33301 2.36835 9.33301 2.00016Z" fill="#F4F4F5"/>
<path d="M5.17214 2.66683L6.66634 2.66683C7.03453 2.66683 7.33301 2.96531 7.33301 3.3335C7.33301 3.70169 7.03453 4.00016 6.66634 4.00016H5.19968C4.62862 4.00016 4.24043 4.00068 3.94037 4.0252C3.64809 4.04908 3.49862 4.09236 3.39435 4.14549C3.14347 4.27332 2.9395 4.47729 2.81167 4.72818C2.75854 4.83244 2.71526 4.98191 2.69138 5.27419C2.66686 5.57425 2.66634 5.96244 2.66634 6.5335V10.8002C2.66634 11.3712 2.66686 11.7594 2.69138 12.0595C2.71526 12.3517 2.75854 12.5012 2.81167 12.6055C2.9395 12.8564 3.14347 13.0603 3.39435 13.1882C3.49862 13.2413 3.64809 13.2846 3.94037 13.3085C4.24043 13.333 4.62862 13.3335 5.19968 13.3335H9.46634C10.0374 13.3335 10.4256 13.333 10.7256 13.3085C11.0179 13.2846 11.1674 13.2413 11.2717 13.1882C11.5225 13.0603 11.7265 12.8564 11.8544 12.6055C11.9075 12.5012 11.9508 12.3517 11.9746 12.0595C11.9992 11.7594 11.9997 11.3712 11.9997 10.8002V9.3335C11.9997 8.96531 12.2982 8.66683 12.6663 8.66683C13.0345 8.66683 13.333 8.96531 13.333 9.3335V10.8277C13.333 11.3644 13.333 11.8073 13.3035 12.168C13.2729 12.5428 13.2072 12.8872 13.0424 13.2108C12.7867 13.7126 12.3787 14.1205 11.877 14.3762C11.5534 14.541 11.209 14.6067 10.8342 14.6374C10.4734 14.6668 10.0305 14.6668 9.49389 14.6668H5.17213C4.63549 14.6668 4.19258 14.6668 3.83179 14.6374C3.45706 14.6067 3.11259 14.541 2.78903 14.3762C2.28727 14.1205 1.87932 13.7126 1.62366 13.2108C1.4588 12.8872 1.39309 12.5428 1.36247 12.168C1.33299 11.8073 1.333 11.3643 1.33301 10.8277V6.50596C1.333 5.96932 1.33299 5.52641 1.36247 5.16561C1.39309 4.79088 1.4588 4.44641 1.62366 4.12286C1.87932 3.62109 2.28727 3.21314 2.78903 2.95748C3.11259 2.79262 3.45706 2.72691 3.83179 2.69629C4.19259 2.66681 4.6355 2.66682 5.17214 2.66683Z" fill="#F4F4F5"/>
</svg>
